<svg xmlns="http://www.w3.org/2000/svg" width="336" height="307" viewBox="0 0 336 307"><path fill="#f50" d="M71.14 251.22H39V112.35a73.35 73.35 0 0 1 146.7 0v138.87z"/><path fill="#fff" d="M40.65 109l197.31 197.31H126.69L39 218.61"/><path fill="#333" d="M295.59 295.64h32.97v-3.3a16.5 16.5 0 0 0-32.97 0zm16.49-29.67a13.2 13.2 0 0 0 0-26.38 13.2 13.2 0 0 0 0 26.38zM289 292.34a23.1 23.1 0 0 1 14.92-21.56 19.8 19.8 0 0 1-11.62-18A19.8 19.8 0 0 1 312.08 233a19.8 19.8 0 0 1 19.78 19.78c0 8-4.78 14.88-11.63 18a23.1 23.1 0 0 1 14.92 21.56v9.89H289z"/><path fill="#f50" d="M260.87 138.66l-5.62 5.62c8.65 2.4 24.78 8.93 38.81 26.24 18.85 23.24 20.46 50.21 20.52 51.35l-6.59.35c-.01-.26-1.53-25.96-19.04-47.55-13.03-16.07-28.23-22.01-35.81-24.1l2 8.04-6.39 1.6-3.75-15L256.21 134z"/><path fill="#fff" d="M119.89 298.89L39 218"/><path fill="#333" d="M119.99 302.08c-.8 0-1.59-.31-2.19-.91l-80.89-80.89a3.1 3.1 0 0 1 4.37-4.38l80.89 80.9a3.08 3.08 0 0 1-2.18 5.28"/><path fill="#fff" d="M41 109l190.51 190.51"/><path fill="#333" d="M231.6 301.69c-.79 0-1.58-.3-2.19-.91l-190.5-190.5a3.1 3.1 0 0 1 4.37-4.38l190.5 190.51a3.08 3.08 0 0 1-2.18 5.28"/><path fill="#333" d="M108 288.3h111.26V285H108zM86 266.3h111.01V263H86zM63 244.3h112.64V241H63zM41 222.3h111.54V219H41zM37 200.3h92.47V197H37zM37 178.3h71.04V175H37zM37 156.3h50.82V153H37zM37 134.3h26.54V131H37z"/><path fill="#333" d="M71.23 254.4H36V112.44C36 70.29 70.29 36 112.44 36s76.44 34.29 76.44 76.44v138.87h-6.18V112.44a70.34 70.34 0 0 0-70.26-70.26 70.34 70.34 0 0 0-70.26 70.26v135.78h29.05zM6.59 237.3a3.3 3.3 0 0 0-3.29 3.29v9.43a3.3 3.3 0 0 0 3.29 3.29h20.29a3.3 3.3 0 0 0 3.29-3.29v-9.43a3.3 3.3 0 0 0-3.29-3.29zm0 19.31A6.6 6.6 0 0 1 0 250.02v-9.43A6.6 6.6 0 0 1 6.59 234h20.29a6.6 6.6 0 0 1 6.59 6.59v9.43a6.6 6.6 0 0 1-6.59 6.59zM6.59 211.3a3.3 3.3 0 0 0-3.29 3.29v9.43a3.3 3.3 0 0 0 3.29 3.29h20.29a3.3 3.3 0 0 0 3.29-3.29v-9.43a3.3 3.3 0 0 0-3.29-3.29zm0 19.31A6.6 6.6 0 0 1 0 224.02v-9.43A6.6 6.6 0 0 1 6.59 208h20.29a6.6 6.6 0 0 1 6.59 6.59v9.43a6.6 6.6 0 0 1-6.59 6.59zM6.59 186.3a3.3 3.3 0 0 0-3.29 3.29v9.43a3.3 3.3 0 0 0 3.29 3.29h20.29a3.3 3.3 0 0 0 3.29-3.29v-9.43a3.3 3.3 0 0 0-3.29-3.29zm0 19.31A6.6 6.6 0 0 1 0 199.02v-9.43A6.6 6.6 0 0 1 6.59 183h20.29a6.6 6.6 0 0 1 6.59 6.59v9.43a6.6 6.6 0 0 1-6.59 6.59zM6.59 160.3a3.3 3.3 0 0 0-3.29 3.29v9.43a3.3 3.3 0 0 0 3.29 3.29h20.29a3.3 3.3 0 0 0 3.29-3.29v-9.43a3.3 3.3 0 0 0-3.29-3.29zm0 19.31A6.6 6.6 0 0 1 0 173.02v-9.43A6.6 6.6 0 0 1 6.59 157h20.29a6.6 6.6 0 0 1 6.59 6.59v9.43a6.6 6.6 0 0 1-6.59 6.59zM6.59 135.3a3.3 3.3 0 0 0-3.29 3.29v9.43a3.3 3.3 0 0 0 3.29 3.29h20.29a3.3 3.3 0 0 0 3.29-3.29v-9.43a3.3 3.3 0 0 0-3.29-3.29zm0 19.31A6.6 6.6 0 0 1 0 148.02v-9.43A6.6 6.6 0 0 1 6.59 132h20.29a6.6 6.6 0 0 1 6.59 6.59v9.43a6.6 6.6 0 0 1-6.59 6.59zM6.59 110.3a3.3 3.3 0 0 0-3.29 3.29v9.43a3.3 3.3 0 0 0 3.29 3.29h20.29a3.3 3.3 0 0 0 3.29-3.29v-9.43a3.3 3.3 0 0 0-3.29-3.29zm0 19.31A6.6 6.6 0 0 1 0 123.02v-9.43A6.6 6.6 0 0 1 6.59 107h20.29a6.6 6.6 0 0 1 6.59 6.59v9.43a6.6 6.6 0 0 1-6.59 6.59zM26.41 98.98a3.29 3.29 0 0 0 4.01-2.37l2.36-9.12a3.29 3.29 0 0 0-2.37-4.01L10.78 78.4a3.27 3.27 0 0 0-2.5.36 3.28 3.28 0 0 0-1.52 2.01L4.4 89.89a3.31 3.31 0 0 0 2.37 4.02zm-.83 3.19L5.95 97.1a6.6 6.6 0 0 1-4.74-8.03l2.36-9.12a6.54 6.54 0 0 1 3.04-4.03 6.52 6.52 0 0 1 4.99-.71l19.64 5.07a6.6 6.6 0 0 1 4.73 8.04l-2.35 9.12a6.61 6.61 0 0 1-8.04 4.73zM23.2 48.43c-.85.25-1.55.81-1.97 1.58l-4.53 8.26a3.32 3.32 0 0 0 1.31 4.48l17.78 9.74a3.3 3.3 0 0 0 4.48-1.3l4.53-8.27a3.29 3.29 0 0 0-1.31-4.47L25.7 48.7a3.33 3.33 0 0 0-2.5-.27zm11.01 26.95l-17.79-9.74a6.53 6.53 0 0 1-3.15-3.94c-.5-1.69-.3-3.47.54-5.01l4.53-8.27a6.51 6.51 0 0 1 3.93-3.15c1.7-.5 3.48-.3 5.02.54l17.79 9.75a6.6 6.6 0 0 1 2.61 8.95l-4.53 8.26a6.56 6.56 0 0 1-8.95 2.61z"/><path fill="#333" d="M53.28 49.27a3.26 3.26 0 0 0 2.25 1.13c.88.07 1.73-.2 2.4-.77l7.15-6.13a3.27 3.27 0 0 0 1.14-2.25 3.25 3.25 0 0 0-.78-2.4l-13.19-15.4a3.3 3.3 0 0 0-4.65-.36l-7.16 6.13a3.3 3.3 0 0 0-1.13 2.25c-.07.88.2 1.73.77 2.4zm2 4.42a6.5 6.5 0 0 1-4.5-2.28l-13.2-15.4a6.54 6.54 0 0 1-1.56-4.8 6.55 6.55 0 0 1 2.28-4.5l7.15-6.13a6.61 6.61 0 0 1 9.3.72l13.2 15.4a6.6 6.6 0 0 1-.72 9.3l-7.16 6.13a6.52 6.52 0 0 1-4.79 1.56zM107.59 3.3a3.3 3.3 0 0 0-3.29 3.29v20.29a3.3 3.3 0 0 0 3.29 3.29h9.43a3.3 3.3 0 0 0 3.29-3.29V6.59a3.3 3.3 0 0 0-3.29-3.29zm0 30.17a6.6 6.6 0 0 1-6.59-6.59V6.59A6.6 6.6 0 0 1 107.59 0h9.43a6.6 6.6 0 0 1 6.59 6.59v20.29a6.6 6.6 0 0 1-6.59 6.59zM81.43 7.48l-8.91 3.06a3.29 3.29 0 0 0-2.04 4.18l6.58 19.19a3.3 3.3 0 0 0 4.19 2.04l8.91-3.06c.83-.28 1.5-.87 1.89-1.67.39-.79.45-1.69.16-2.51L85.62 9.52a3.3 3.3 0 0 0-4.19-2.04zm-4.14 31.28a6.55 6.55 0 0 1-3.34-3.78L67.36 15.8a6.6 6.6 0 0 1 4.09-8.38l8.91-3.06a6.6 6.6 0 0 1 8.38 4.09l6.59 19.18a6.54 6.54 0 0 1-.32 5.04 6.52 6.52 0 0 1-3.78 3.34l-8.91 3.06a6.48 6.48 0 0 1-5.03-.31zM197.59 236.3a3.3 3.3 0 0 0-3.29 3.29v9.43a3.3 3.3 0 0 0 3.29 3.29h20.29a3.3 3.3 0 0 0 3.29-3.29v-9.43a3.3 3.3 0 0 0-3.29-3.29zm0 19.31a6.6 6.6 0 0 1-6.59-6.59v-9.43a6.6 6.6 0 0 1 6.59-6.59h20.29a6.6 6.6 0 0 1 6.59 6.59v9.43a6.6 6.6 0 0 1-6.59 6.59zM197.59 211.3a3.3 3.3 0 0 0-3.29 3.29v9.43a3.3 3.3 0 0 0 3.29 3.29h20.29a3.3 3.3 0 0 0 3.29-3.29v-9.43a3.3 3.3 0 0 0-3.29-3.29zm0 19.31a6.6 6.6 0 0 1-6.59-6.59v-9.43a6.6 6.6 0 0 1 6.59-6.59h20.29a6.6 6.6 0 0 1 6.59 6.59v9.43a6.6 6.6 0 0 1-6.59 6.59zM197.59 185.3a3.3 3.3 0 0 0-3.29 3.29v9.43a3.3 3.3 0 0 0 3.29 3.29h20.29a3.3 3.3 0 0 0 3.29-3.29v-9.43a3.3 3.3 0 0 0-3.29-3.29zm0 19.31a6.6 6.6 0 0 1-6.59-6.59v-9.43a6.6 6.6 0 0 1 6.59-6.59h20.29a6.6 6.6 0 0 1 6.59 6.59v9.43a6.6 6.6 0 0 1-6.59 6.59zM197.59 160.3a3.3 3.3 0 0 0-3.29 3.29v9.43a3.3 3.3 0 0 0 3.29 3.29h20.29a3.3 3.3 0 0 0 3.29-3.29v-9.43a3.3 3.3 0 0 0-3.29-3.29zm0 19.31a6.6 6.6 0 0 1-6.59-6.59v-9.43a6.6 6.6 0 0 1 6.59-6.59h20.29a6.6 6.6 0 0 1 6.59 6.59v9.43a6.6 6.6 0 0 1-6.59 6.59zM197.59 135.3a3.3 3.3 0 0 0-3.29 3.29v9.43a3.3 3.3 0 0 0 3.29 3.29h20.29a3.3 3.3 0 0 0 3.29-3.29v-9.43a3.3 3.3 0 0 0-3.29-3.29zm0 19.31a6.6 6.6 0 0 1-6.59-6.59v-9.43a6.6 6.6 0 0 1 6.59-6.59h20.29a6.6 6.6 0 0 1 6.59 6.59v9.43a6.6 6.6 0 0 1-6.59 6.59zM197.59 110.3a3.3 3.3 0 0 0-3.29 3.29v9.43a3.3 3.3 0 0 0 3.29 3.29h20.29a3.3 3.3 0 0 0 3.29-3.29v-9.43a3.3 3.3 0 0 0-3.29-3.29zm0 19.31a6.6 6.6 0 0 1-6.59-6.59v-9.43a6.6 6.6 0 0 1 6.59-6.59h20.29a6.6 6.6 0 0 1 6.59 6.59v9.43a6.6 6.6 0 0 1-6.59 6.59zM213.41 78.4l-19.64 5.08a3.3 3.3 0 0 0-2.37 4.01l2.36 9.12a3.3 3.3 0 0 0 4.02 2.37l19.63-5.07a3.28 3.28 0 0 0 2.01-1.52c.45-.76.58-1.65.36-2.5l-2.36-9.12a3.3 3.3 0 0 0-4.01-2.37zm-22.84 19.04l-2.36-9.12a6.61 6.61 0 0 1 4.74-8.04l19.63-5.07a6.61 6.61 0 0 1 8.04 4.74l2.35 9.12c.44 1.7.19 3.47-.71 4.99a6.53 6.53 0 0 1-4.02 3.04l-19.64 5.07a6.6 6.6 0 0 1-8.03-4.73zM198.79 47.7l-17.78 9.75a3.28 3.28 0 0 0-1.31 4.47l4.53 8.27a3.3 3.3 0 0 0 4.47 1.3l17.79-9.74a3.32 3.32 0 0 0 1.31-4.48l-4.53-8.26a3.28 3.28 0 0 0-2.91-1.71c-.54 0-1.08.13-1.57.4zm-13.52 27.23a6.56 6.56 0 0 1-3.93-3.16l-4.53-8.26a6.55 6.55 0 0 1-.54-5.02 6.51 6.51 0 0 1 3.15-3.93l17.79-9.75a6.55 6.55 0 0 1 5.02-.54 6.51 6.51 0 0 1 3.93 3.15l4.53 8.27a6.57 6.57 0 0 1-2.61 8.95l-17.79 9.74a6.51 6.51 0 0 1-5.02.55zM172.28 23.45l-13.2 15.4a3.29 3.29 0 0 0-.77 2.4 3.3 3.3 0 0 0 1.13 2.25l7.16 6.13c.66.57 1.52.84 2.4.77a3.26 3.26 0 0 0 2.25-1.13l13.19-15.4a3.28 3.28 0 0 0-.36-4.65l-7.15-6.13a3.3 3.3 0 0 0-4.65.36zm-7.83 28.68L157.3 46a6.53 6.53 0 0 1-2.28-4.5 6.56 6.56 0 0 1 1.56-4.8l13.2-15.4a6.6 6.6 0 0 1 9.29-.72l7.16 6.13a6.6 6.6 0 0 1 .72 9.3l-13.2 15.4a6.53 6.53 0 0 1-5.02 2.3 6.54 6.54 0 0 1-4.28-1.58zM139.06 8.52l-6.58 19.18a3.3 3.3 0 0 0 2.04 4.19l8.91 3.06a3.29 3.29 0 0 0 4.19-2.04l6.59-19.19a3.3 3.3 0 0 0-2.05-4.18l-8.91-3.06a3.31 3.31 0 0 0-4.19 2.04zm3.3 29.55l-8.91-3.06a6.6 6.6 0 0 1-4.09-8.38l6.59-19.18a6.6 6.6 0 0 1 8.37-4.09l8.91 3.06a6.6 6.6 0 0 1 4.1 8.37l-6.59 19.19a6.6 6.6 0 0 1-8.38 4.09z"/></svg>