<svg xmlns="http://www.w3.org/2000/svg" width="359" height="181" viewBox="0 0 359 181"><path fill="#f50" d="M6 95h267.33l82.21 82.21H88.21z"/><path fill="#333" d="M89.23 174.21h259.28l-76.52-76.52H12.72zm266.15 5.69H88.06c-.76 0-1.48-.3-2.02-.83L3.83 96.86A2.85 2.85 0 0 1 5.85 92h267.32c.76 0 1.48.3 2.02.83l82.21 82.21a2.85 2.85 0 0 1-2.02 4.86z"/><path fill="#333" d="M272 176.32h3.04V95H272zM294.04 176.39H291V99.81A26.84 26.84 0 0 1 317.81 73v3.04a23.8 23.8 0 0 0-23.77 23.77z"/><path fill="#333" d="M308.04 177.16H305v-62.35A26.84 26.84 0 0 1 331.81 88v3.04a23.8 23.8 0 0 0-23.77 23.77z"/><path fill="#333" d="M305.04 139.19L291 125.15l2.15-2.15 14.04 14.04zM305.04 128.19L291 114.15l2.15-2.15 14.04 14.04zM305.04 118.19L291 104.15l2.15-2.15 14.04 14.04zM305.04 149.19L291 135.15l2.15-2.15 14.04 14.04zM305.04 159.19L291 145.15l2.15-2.15 14.04 14.04zM305.04 170.19L291 156.15l2.15-2.15 14.04 14.04zM305.04 180.19L291 166.15l2.15-2.15 14.04 14.04zM162.07 58.67h30.36v-3.03a15.2 15.2 0 0 0-15.18-15.18 15.2 15.2 0 0 0-15.18 15.18zm15.18-27.32a12.15 12.15 0 0 0 0-24.28 12.15 12.15 0 0 0 0 24.28zM156 55.64c0-9.07 5.72-16.81 13.74-19.85a18.23 18.23 0 0 1-10.7-16.58A18.23 18.23 0 0 1 177.25 1a18.23 18.23 0 0 1 18.21 18.21c0 7.37-4.4 13.71-10.7 16.58a21.27 21.27 0 0 1 13.74 19.85v9.1H156z"/><path fill="#f50" d="M282.93 49.46l-5.17 5.17c-2.21-7.97-8.22-22.82-24.16-35.74C232.2 1.53 207.36.06 206.32 0L206 6.06c.24.02 23.9 1.42 43.78 17.54 14.79 12 20.27 25.99 22.19 32.98l-7.4-1.85-1.47 5.88 13.81 3.46 10.32-10.32z"/><path fill="#fff" d="M52.19 143.28v-9.19c0-11.86-9.65-21.5-21.5-21.5H5V105h25.69a29.12 29.12 0 0 1 29.09 29.09v15.77"/><path fill="#333" d="M61.82 150.37h-3.04v-15.76a27.6 27.6 0 0 0-27.57-27.57H7.04v4.55h24.17a23.05 23.05 0 0 1 23.02 23.02v9.19h-3.04v-9.19a20 20 0 0 0-19.98-19.99H5.52c-.84 0-1.52-.68-1.52-1.51v-7.59c0-.84.68-1.52 1.52-1.52h25.69a30.65 30.65 0 0 1 30.61 30.61z"/><path fill="#fff" d="M67.19 159.26v-7.17c0-11.86-9.65-21.5-21.5-21.5H20V123h25.69a29.12 29.12 0 0 1 29.09 29.09v13.74"/><path fill="#333" d="M76.82 165.35h-3.04v-13.74a27.6 27.6 0 0 0-27.57-27.57H22.04v4.55h24.17a23.05 23.05 0 0 1 23.02 23.02v7.16h-3.04v-7.16a20 20 0 0 0-19.98-19.99H20.52c-.84 0-1.52-.68-1.52-1.51v-7.59c0-.84.68-1.52 1.52-1.52h25.69a30.65 30.65 0 0 1 30.61 30.61z"/><path fill="#333" d="M88.58 180.42c-.73 0-1.46-.28-2.02-.83l-44.73-44.73a2.85 2.85 0 0 1 4.03-4.03l44.73 44.73a2.85 2.85 0 0 1-2.01 4.86"/><path fill="#fff" d="M9.63 108.81a3.82 3.82 0 1 1-7.64 0 3.82 3.82 0 0 1 7.64 0"/><path fill="#333" d="M3.04 109.33a2.3 2.3 0 1 0 4.6 0 2.3 2.3 0 0 0-4.6 0zm-3.04 0a5.33 5.33 0 1 1 10.67 0 5.33 5.33 0 0 1-10.67 0z"/><path fill="#fff" d="M24.61 126.81a3.8 3.8 0 1 1-7.6 0 3.8 3.8 0 0 1 7.6 0"/><path fill="#333" d="M18.04 126.32a2.28 2.28 0 1 0 4.56.02 2.28 2.28 0 0 0-4.56-.02zm-3.04 0a5.33 5.33 0 1 1 10.66.02 5.33 5.33 0 0 1-10.66-.02z"/><path fill="#fff" d="M102 176.02h7.63V82H102z"/><path fill="#333" d="M104.04 174.02h4.59V83.04h-4.59zm-1.52 3.03c-.84 0-1.52-.68-1.52-1.52V81.52c0-.84.68-1.52 1.52-1.52h7.62c.84 0 1.52.68 1.52 1.52v94.01c0 .84-.68 1.52-1.52 1.52z"/><path fill="#fff" d="M109.63 81.81a3.82 3.82 0 1 1-7.64 0 3.82 3.82 0 0 1 7.64 0"/><path fill="#333" d="M104.04 82.33a2.3 2.3 0 1 0 4.6 0 2.3 2.3 0 0 0-4.6 0zm-3.04 0a5.33 5.33 0 1 1 10.67 0 5.33 5.33 0 0 1-10.67 0z"/><path fill="#fff" d="M119 176.02h7.63V82H119z"/><path fill="#333" d="M120.04 174.02h4.59V83.04h-4.59zm-1.52 3.03c-.84 0-1.52-.68-1.52-1.52V81.52c0-.84.68-1.52 1.52-1.52h7.62c.84 0 1.52.68 1.52 1.52v94.01c0 .84-.68 1.52-1.52 1.52z"/><path fill="#fff" d="M126.63 81.81a3.82 3.82 0 1 1-7.64 0 3.82 3.82 0 0 1 7.64 0"/><path fill="#333" d="M120.04 82.33a2.3 2.3 0 1 0 4.6 0 2.3 2.3 0 0 0-4.6 0zm-3.04 0a5.33 5.33 0 1 1 10.67 0 5.33 5.33 0 0 1-10.67 0z"/><path fill="#fff" d="M135 176.02h7.63V82H135z"/><path fill="#333" d="M137.04 174.02h4.59V83.04h-4.59zm-1.52 3.03c-.84 0-1.52-.68-1.52-1.52V81.52c0-.84.68-1.52 1.52-1.52h7.62c.84 0 1.52.68 1.52 1.52v94.01c0 .84-.68 1.52-1.52 1.52z"/><path fill="#fff" d="M142.63 81.81a3.82 3.82 0 1 1-7.64 0 3.82 3.82 0 0 1 7.64 0"/><path fill="#333" d="M137.04 82.33a2.3 2.3 0 1 0 4.6 0 2.3 2.3 0 0 0-4.6 0zm-3.04 0a5.33 5.33 0 1 1 10.67 0 5.33 5.33 0 0 1-10.67 0z"/></svg>