<svg xmlns="http://www.w3.org/2000/svg" width="328" height="240" viewBox="0 0 328 240"><path fill="#333" d="M285.07 92.69v-3.03a15.2 15.2 0 0 1 15.19-15.18 15.2 15.2 0 0 1 15.18 15.18v3.03zm15.19-51.62a12.16 12.16 0 0 1 0 24.3c-6.7 0-12.15-5.45-12.15-12.15s5.45-12.15 12.15-12.15zm18.22 12.15A18.24 18.24 0 0 0 300.26 35a18.24 18.24 0 0 0-18.22 18.22c0 7.37 4.4 13.71 10.7 16.58A21.27 21.27 0 0 0 279 89.66v9.11h42.51v-9.11c0-9.08-5.73-16.82-13.74-19.86a18.24 18.24 0 0 0 10.71-16.58z"/><path fill="#fff" d="M49.61 204.23L3 157.62h128.55L148.17 141h123.01l-61.73 61.73"/><path fill="#333" d="M49.46 206.93c-.73 0-1.46-.28-2.02-.84L.83 159.48a2.85 2.85 0 0 1 2.02-4.86h127.37L146 138.83a2.88 2.88 0 0 1 2.02-.83h123.01a2.84 2.84 0 0 1 2.01 4.86l-61.73 61.73a2.84 2.84 0 1 1-4.03-4.02l56.88-56.88H149.2l-15.79 15.79c-.54.54-1.26.83-2.02.83H9.72l41.75 41.76a2.84 2.84 0 0 1-2.01 4.86"/><path fill="#333" d="M16.52 159.34c-.84 0-1.52-.68-1.52-1.52v-12.3c0-.84.68-1.52 1.52-1.52h127.53a1.52 1.52 0 0 1 0 3.04H18.04v10.78c0 .84-.68 1.52-1.52 1.52"/><path fill="#333" d="M77.85 160.26a2.84 2.84 0 0 1-2.85-2.85v-55.56A2.84 2.84 0 0 1 77.85 99h85.66a2.84 2.84 0 0 1 2.84 2.85l.03 38.91a2.85 2.85 0 0 1-5.7.01l-.02-36.08H80.69v52.72a2.84 2.84 0 0 1-2.84 2.85"/><path fill="#333" d="M185.92 103.85a2.85 2.85 0 0 1-2.85-2.84l-.02-35.32h-80l-.36 34.61a2.86 2.86 0 0 1-2.87 2.82 2.86 2.86 0 0 1-2.82-2.88l.39-37.42a2.84 2.84 0 0 1 2.84-2.82h85.66a2.85 2.85 0 0 1 2.85 2.84l.02 38.16a2.85 2.85 0 0 1-2.84 2.85z"/><path fill="#333" d="M163.85 143.61h-.02a2.85 2.85 0 0 1-2.83-2.86l.19-38.92a2.85 2.85 0 0 1 2.85-2.83h76.39a2.84 2.84 0 0 1 2.84 2.84l.03 38.92a2.85 2.85 0 1 1-5.7.01l-.02-36.08h-70.71l-.18 36.09a2.84 2.84 0 0 1-2.84 2.83"/><path fill="#f50" d="M196.43 155.5h-1.77V141H175.9v14.5h-23.32A10.6 10.6 0 0 0 142 166.07v10.72c0 5.82 4.76 10.58 10.58 10.58h43.85A10.6 10.6 0 0 0 207 176.79v-10.72a10.6 10.6 0 0 0-10.57-10.57"/><path fill="#333" d="M153.43 159.19a7.74 7.74 0 0 0-7.74 7.73v10.72a7.74 7.74 0 0 0 7.74 7.73h43.84a7.74 7.74 0 0 0 7.73-7.73v-10.72a7.74 7.74 0 0 0-7.73-7.73h-1.76a2.86 2.86 0 0 1-2.85-2.85v-11.65h-13.07v11.65a2.85 2.85 0 0 1-2.84 2.85zm0 31.87A13.44 13.44 0 0 1 140 177.64v-10.72c0-7.4 6.02-13.42 13.43-13.42h20.47v-11.65a2.84 2.84 0 0 1 2.85-2.85h18.76a2.85 2.85 0 0 1 2.85 2.85v11.69a13.44 13.44 0 0 1 12.34 13.38v10.72c0 7.4-6.03 13.42-13.43 13.42zM44.04 175.48a5.45 5.45 0 1 0 10.9 0 5.45 5.45 0 0 0-10.9 0zm-3.04 0a8.5 8.5 0 0 1 16.97 0 8.5 8.5 0 0 1-8.49 8.49 8.5 8.5 0 0 1-8.48-8.49zM80.04 175.48a5.45 5.45 0 1 0 10.9 0 5.45 5.45 0 0 0-10.9 0zm-3.04 0a8.5 8.5 0 0 1 16.97 0 8.5 8.5 0 0 1-8.49 8.49 8.5 8.5 0 0 1-8.48-8.49zM116.04 175.48a5.45 5.45 0 1 0 10.9 0 5.45 5.45 0 0 0-10.9 0zm-3.04 0a8.5 8.5 0 0 1 16.97 0 8.5 8.5 0 0 1-8.49 8.49 8.5 8.5 0 0 1-8.48-8.49z"/><path fill="#f50" d="M182.29 116.47l5.17 5.18c2.22-7.97 8.24-22.83 24.18-35.75 21.4-17.37 46.25-18.84 47.3-18.9l.32 6.07c-.24.01-23.91 1.41-43.8 17.54-14.8 12-20.27 26-22.2 32.99l7.41-1.85 1.47 5.88-13.82 3.46L178 120.77z"/><path fill="#333" d="M35.69 154.58h9.64V27.69h-9.64zm-2.84 5.69a2.85 2.85 0 0 1-2.85-2.85V24.85A2.84 2.84 0 0 1 32.85 22h15.32a2.84 2.84 0 0 1 2.85 2.85v132.57a2.85 2.85 0 0 1-2.85 2.85z"/><path fill="#333" d="M48.23 136.39H32.9c-.61 0-1.17-.37-1.4-.94a1.49 1.49 0 0 1 .33-1.65l12.72-12.72-11.96-11.96a1.53 1.53 0 0 1 0-2.15l12.72-12.72-13.87-13.87a1.51 1.51 0 0 1 0-2.14l13.11-13.11-11.96-11.95a1.52 1.52 0 0 1 0-2.15L44.93 38.7l-13.1-13.11a1.5 1.5 0 0 1 0-2.15 1.53 1.53 0 0 1 2.15 0l14.17 14.18c.6.59.6 1.56 0 2.15L35.82 52.11l11.95 11.95a1.52 1.52 0 0 1 0 2.15l-13.1 13.1 13.87 13.87c.59.59.59 1.56 0 2.15l-12.72 12.72L47.77 120c.59.6.59 1.56 0 2.15l-11.2 11.2h11.66a1.52 1.52 0 1 1 0 3.04M49.84 24.81a2.85 2.85 0 0 1-.37-5.67l64-8.45H50.33a2.85 2.85 0 1 1 0-5.69h106.46a2.84 2.84 0 0 1 .37 5.67L50.22 24.79l-.38.02"/><path fill="#333" d="M99.52 64.43a1.52 1.52 0 0 1-.74-2.85l41.01-22.67V10.52a1.52 1.52 0 1 1 3.04 0V39.8c0 .56-.3 1.06-.78 1.33l-41.8 23.11c-.23.13-.48.19-.73.19"/><path fill="#333" d="M185.38 65.15c-.24 0-.48-.06-.7-.18l-43.87-23.11a1.5 1.5 0 0 1-.63-2.05 1.5 1.5 0 0 1 2.05-.63l43.86 23.1c.74.4 1.03 1.31.64 2.06-.27.51-.8.81-1.35.81"/><path fill="#fff" d="M324.34 237.23A31.18 31.18 0 0 1 300.35 226h-.02a31.18 31.18 0 0 1-23.99 11.23h-.12A31.18 31.18 0 0 1 252.23 226h-.01a31.18 31.18 0 0 1-23.99 11.23h-.12A31.18 31.18 0 0 1 204.12 226h-.02a31.15 31.15 0 0 1-23.98 11.23h-.13A31.18 31.18 0 0 1 156 226h-.01A31.18 31.18 0 0 1 132 237.23"/><path fill="#333" d="M324.19 239.93h-.01a34 34 0 0 1-23.99-9.88 34.02 34.02 0 0 1-24 9.88h-.12a34 34 0 0 1-24-9.88 34 34 0 0 1-23.99 9.88h-.13a34 34 0 0 1-23.99-9.88 34 34 0 0 1-24 9.88h-.12a34 34 0 0 1-24-9.88 34 34 0 0 1-23.99 9.88 2.85 2.85 0 1 1 0-5.7c8.44 0 16.38-3.72 21.8-10.21a2.87 2.87 0 0 1 4.39 0 28.31 28.31 0 0 0 21.8 10.21h.12c8.44 0 16.39-3.72 21.8-10.21a2.9 2.9 0 0 1 2.19-1.02c.84 0 1.66.38 2.2 1.02a28.33 28.33 0 0 0 21.8 10.21h.13c8.44 0 16.38-3.72 21.8-10.21a2.86 2.86 0 0 1 4.38 0 28.35 28.35 0 0 0 21.81 10.21h.12c8.44 0 16.39-3.72 21.8-10.21a2.87 2.87 0 0 1 4.39 0 28.31 28.31 0 0 0 21.8 10.21 2.86 2.86 0 0 1 .01 5.7"/><path fill="#fff" d="M54.15 24.58h-26.6A4.57 4.57 0 0 1 23 20.03V7.55C23 5.05 25.05 3 27.55 3h26.6c2.5 0 4.55 2.05 4.55 4.55v12.48c0 2.5-2.05 4.55-4.55 4.55"/><path fill="#333" d="M27.4 5.69c-.92 0-1.71.79-1.71 1.71v12.47c0 .93.79 1.71 1.71 1.71H54c.92 0 1.7-.78 1.7-1.71V7.4c0-.92-.78-1.71-1.7-1.71zm0 21.59a7.41 7.41 0 0 1-7.4-7.41V7.4A7.4 7.4 0 0 1 27.4 0H54a7.4 7.4 0 0 1 7.4 7.4v12.47a7.41 7.41 0 0 1-7.4 7.41z"/></svg>