<svg xmlns="http://www.w3.org/2000/svg" width="276" height="296" viewBox="0 0 276 296"><path fill="#333" d="M93 294.83h33.27V230H93zm6.04-58.79h21.19v52.76H99.04zM190 294.83h33.27V230H190zm6.04-58.79h21.19v52.76h-21.19z"/><path fill="#fff" d="M181.15 271.4h-46.61A38.65 38.65 0 0 1 96 232.86V118.54A38.65 38.65 0 0 1 134.54 80h46.61a38.65 38.65 0 0 1 38.54 38.54v114.32a38.65 38.65 0 0 1-38.54 38.54z"/><path fill="#333" d="M134.56 83.04a35.55 35.55 0 0 0-35.52 35.52v114.31a35.56 35.56 0 0 0 35.52 35.53h46.61a35.56 35.56 0 0 0 35.52-35.53V118.56a35.55 35.55 0 0 0-35.52-35.52zm0 191.4A41.61 41.61 0 0 1 93 232.87V118.56A41.6 41.6 0 0 1 134.56 77h46.61a41.6 41.6 0 0 1 41.56 41.56v114.31a41.61 41.61 0 0 1-41.56 41.57z"/><path fill="#f50" d="M194.04 219.52a34.51 34.51 0 1 1-69.03.01 34.51 34.51 0 0 1 69.03-.01"/><path fill="#333" d="M128.04 219.54a31.53 31.53 0 0 0 31.5 31.5 31.53 31.53 0 0 0 31.5-31.5 31.53 31.53 0 0 0-31.5-31.5 31.53 31.53 0 0 0-31.5 31.5zm-6.04 0A37.58 37.58 0 0 1 159.54 182a37.58 37.58 0 0 1 37.54 37.54 37.58 37.58 0 0 1-37.54 37.54A37.58 37.58 0 0 1 122 219.54z"/><path fill="#fff" d="M273.82 219.91a37.91 37.91 0 1 1-75.82-.02 37.91 37.91 0 0 1 75.82.02"/><path fill="#333" d="M199.22 219.52a36.34 36.34 0 0 0 36.3 36.3 36.34 36.34 0 0 0 36.29-36.3 36.33 36.33 0 0 0-36.29-36.3 36.34 36.34 0 0 0-36.3 36.3zm-3.22 0A39.57 39.57 0 0 1 235.52 180a39.56 39.56 0 0 1 39.51 39.52 39.55 39.55 0 0 1-39.51 39.51A39.56 39.56 0 0 1 196 219.52z"/><path fill="#fff" d="M235.5 251.01A31.54 31.54 0 0 1 204 219.5a31.53 31.53 0 0 1 31.5-31.5 31.54 31.54 0 0 1 31.51 31.5 31.54 31.54 0 0 1-31.51 31.51"/><path fill="#333" d="M201 219.52a34.52 34.52 0 1 0 69.04 0 34.52 34.52 0 0 0-69.04 0zm63.01 0a28.52 28.52 0 0 1-28.49 28.49 28.51 28.51 0 0 1-28.48-28.49 28.5 28.5 0 0 1 28.48-28.48 28.51 28.51 0 0 1 28.49 28.48z"/><path fill="#fff" d="M195 227.67h7.08V211H195z"/><path fill="#333" d="M197.22 225.67h3.86v-13.45h-3.86zM194 209h10.3v19.89H194z"/><path fill="#fff" d="M239.09 200.05a3.04 3.04 0 1 1-6.09 0 3.04 3.04 0 1 1 6.09 0"/><path fill="#333" d="M234.22 199.65a1.43 1.43 0 1 0 2.87 0 1.43 1.43 0 0 0-2.87 0zm-3.22 0a4.66 4.66 0 1 1 9.32.02 4.66 4.66 0 0 1-9.32-.02z"/><path fill="#fff" d="M239.09 239.05a3.04 3.04 0 1 1-6.09 0 3.04 3.04 0 1 1 6.09 0"/><path fill="#333" d="M234.22 238.65a1.43 1.43 0 1 0 2.87 0 1.43 1.43 0 0 0-2.87 0zm-3.22 0a4.66 4.66 0 1 1 9.32.02 4.66 4.66 0 0 1-9.32-.02z"/><path fill="#fff" d="M251.2 208.2a3.05 3.05 0 1 1-4.31-4.31 3.05 3.05 0 0 1 4.31 4.31"/><path fill="#333" d="M248.64 204.64a1.44 1.44 0 1 0 2.03 2.03 1.44 1.44 0 0 0-2.03-2.03zm-2.28 4.3a4.67 4.67 0 0 1 0-6.58 4.65 4.65 0 1 1 0 6.58z"/><path fill="#fff" d="M224.2 235.2a3.05 3.05 0 1 1-4.31-4.31 3.05 3.05 0 0 1 4.31 4.31"/><path fill="#333" d="M220.64 232.64a1.43 1.43 0 0 0 0 2.03c.54.54 1.49.54 2.03 0a1.43 1.43 0 0 0 0-2.03 1.43 1.43 0 0 0-2.03 0zm-2.28 4.3a4.62 4.62 0 0 1 0-6.58 4.68 4.68 0 0 1 7.95 3.29 4.65 4.65 0 0 1-7.95 3.29z"/><path fill="#fff" d="M255.05 222.09a3.04 3.04 0 1 1-.02-6.08 3.04 3.04 0 0 1 .02 6.08"/><path fill="#333" d="M253.22 219.65a1.43 1.43 0 1 0 2.87 0 1.43 1.43 0 0 0-2.87 0zm-3.22 0a4.66 4.66 0 1 1 9.32.02 4.66 4.66 0 0 1-9.32-.02z"/><path fill="#fff" d="M216.05 222.09a3.04 3.04 0 1 1-.02-6.08 3.04 3.04 0 0 1 .02 6.08"/><path fill="#333" d="M215.22 219.65a1.43 1.43 0 1 0 2.87 0 1.43 1.43 0 0 0-2.87 0zm-3.22 0a4.66 4.66 0 1 1 9.32.02 4.66 4.66 0 0 1-9.32-.02z"/><path fill="#fff" d="M246.89 235.2a3.05 3.05 0 1 1 4.31-4.31 3.05 3.05 0 0 1-4.31 4.31"/><path fill="#333" d="M248.64 232.64a1.43 1.43 0 0 0 0 2.03c.54.54 1.49.54 2.03 0a1.43 1.43 0 0 0 0-2.03 1.44 1.44 0 0 0-2.03 0zm-2.28 4.3a4.62 4.62 0 0 1 0-6.58 4.67 4.67 0 1 1 0 6.58z"/><path fill="#fff" d="M219.89 208.2a3.05 3.05 0 1 1 4.31-4.31 3.05 3.05 0 0 1-4.31 4.31"/><path fill="#333" d="M222.67 206.67c.56-.56.56-1.47 0-2.03a1.46 1.46 0 0 0-2.03 0 1.44 1.44 0 0 0 0 2.03c.54.54 1.49.54 2.03 0zm-4.31 2.27a4.67 4.67 0 0 1 0-6.58 4.65 4.65 0 1 1 0 6.58zM38.63 284.94c0-8.87-7.22-16.09-16.1-16.09a16.11 16.11 0 0 0-16.09 16.09v3.22h32.19zM9.66 246.31c0 7.1 5.77 12.88 12.87 12.88a12.9 12.9 0 0 0 12.88-12.88 12.88 12.88 0 0 0-25.75 0zm20.84 17.58a22.56 22.56 0 0 1 14.57 21.05v9.66H0v-9.66c0-9.62 6.07-17.82 14.57-21.05a19.34 19.34 0 0 1-11.35-17.58A19.33 19.33 0 0 1 22.53 227a19.34 19.34 0 0 1 19.32 19.31c0 7.81-4.67 14.54-11.35 17.58zM38.63 57.94c0-8.87-7.22-16.09-16.1-16.09A16.11 16.11 0 0 0 6.44 57.94v3.22h32.19zM9.66 19.31c0 7.1 5.77 12.88 12.87 12.88a12.9 12.9 0 0 0 12.88-12.88 12.88 12.88 0 0 0-25.75 0zM30.5 36.89a22.56 22.56 0 0 1 14.57 21.05v9.66H0v-9.66c0-9.62 6.07-17.82 14.57-21.05A19.34 19.34 0 0 1 3.22 19.31 19.33 19.33 0 0 1 22.53 0a19.34 19.34 0 0 1 19.32 19.31c0 7.81-4.67 14.54-11.35 17.58z"/><path fill="#f50" d="M103.45 213.55l5.48 5.48c-8.45 2.35-24.2 8.73-37.9 25.63-18.4 22.69-19.97 49.03-20.03 50.14l6.43.34c.01-.26 1.5-25.35 18.6-46.43 12.72-15.69 27.56-21.49 34.96-23.53l-1.96 7.85 6.25 1.56 3.66-14.65L107.99 209zM181.82 80A34.52 34.52 0 0 1 133 80z"/><path fill="#333" d="M142.04 83.04a31.65 31.65 0 0 0 31.01 0zM131 82.15l2.13-5.15h48.83l2.13 5.15a37.42 37.42 0 0 1-26.55 10.98A37.42 37.42 0 0 1 131 82.15z"/><path fill="#fff" d="M123.92 78.84H88.84A7.84 7.84 0 0 1 81 71h50.76a7.84 7.84 0 0 1-7.84 7.84"/><path fill="#333" d="M82.43 72.22a6.24 6.24 0 0 0 6.02 4.62h35.08a6.24 6.24 0 0 0 6.02-4.62zm6.02 7.84A9.46 9.46 0 0 1 79 70.61V69h53.98v1.61a9.46 9.46 0 0 1-9.45 9.45z"/><path fill="#f50" d="M163.58 55.45l-5.48 5.48c-2.34-8.45-8.72-24.2-25.62-37.9C109.79 4.63 83.45 3.06 82.33 3L82 9.43c.25.01 25.34 1.5 46.42 18.6 15.69 12.72 21.5 27.56 23.54 34.96l-7.85-1.96-1.56 6.25 14.64 3.66 10.95-10.95z"/><path fill="#fff" d="M132 80.32h5.06V71H132z"/><path fill="#333" d="M133.22 78.32h1.84v-6.1h-1.84zM130 69h8.28v12.54H130z"/></svg>