<svg xmlns="http://www.w3.org/2000/svg" width="337" height="245" viewBox="0 0 337 245"><path fill="#f50" d="M145.07 194.24H52L101.24 145h93.07z"/><path fill="#333" d="M58.77 191.24h84.98l43.51-43.52h-84.97zm-6.91 5.72a2.87 2.87 0 0 1-2.02-4.88l49.24-49.24a2.85 2.85 0 0 1 2.02-.84h93.07a2.88 2.88 0 0 1 2.03 4.89l-49.24 49.24a2.9 2.9 0 0 1-2.03.83zM257.31 82h-93.07L115 131.24h93.07zm-13.82 5.72l-37.79 37.8h-76.88l37.79-37.8z"/><path fill="#333" d="M110.21 132.59h100.75l52.54-52.54H162.75zm-3.68 3.05c-.62 0-1.18-.37-1.41-.94a1.5 1.5 0 0 1 .33-1.66l55.59-55.59c.28-.29.67-.45 1.07-.45h105.07a1.53 1.53 0 0 1 1.08 2.61l-55.59 55.58a1.5 1.5 0 0 1-1.08.45z"/><path fill="#fff" d="M125.72 114.81H119L134.81 99h6.72z"/><path fill="#333" d="M123.21 112.81h2.4l12.76-12.76h-2.4zm-3.68 3.05c-.62 0-1.18-.37-1.41-.94a1.5 1.5 0 0 1 .33-1.66l15.81-15.81a1.5 1.5 0 0 1 1.08-.45h6.71a1.53 1.53 0 0 1 1.08 2.61l-15.81 15.81c-.28.28-.67.44-1.08.44z"/><path fill="#fff" d="M237.72 114.81H231L246.81 99h6.72z"/><path fill="#333" d="M235.21 112.81h2.4l12.76-12.76h-2.4zm-3.68 3.05c-.62 0-1.18-.37-1.41-.94a1.5 1.5 0 0 1 .33-1.66l15.81-15.81a1.5 1.5 0 0 1 1.08-.45h6.71a1.53 1.53 0 0 1 1.08 2.61l-15.81 15.81c-.28.28-.67.44-1.08.44zM36.63 54.94c0-8.41-6.85-15.26-15.26-15.26A15.29 15.29 0 0 0 6.1 54.94V58h30.53zM9.16 18.31a12.21 12.21 0 1 0 24.43 0 12.21 12.21 0 0 0-24.43 0zm19.76 16.67a21.38 21.38 0 0 1 13.81 19.96v9.16H0v-9.16c0-9.12 5.76-16.9 13.82-19.96A18.32 18.32 0 0 1 3.05 18.31a18.33 18.33 0 0 1 36.63 0c0 7.41-4.42 13.79-10.76 16.67z"/><path fill="#fff" d="M148.95 243l55-55H190l-55 55z"/><path fill="#333" d="M139.21 241h9.64l51.95-51.95h-9.64zm-3.68 3.05c-.62 0-1.18-.37-1.41-.94a1.5 1.5 0 0 1 .33-1.66l55-55a1.5 1.5 0 0 1 1.08-.45h13.95a1.53 1.53 0 0 1 1.08 2.61l-55 55c-.29.28-.67.44-1.08.44z"/><path fill="#fff" d="M212.95 178l55-55H254l-55 55z"/><path fill="#333" d="M202.21 176h9.64l51.95-51.95h-9.64zm-3.68 3.05c-.62 0-1.18-.37-1.41-.94a1.5 1.5 0 0 1 .33-1.66l55-55a1.5 1.5 0 0 1 1.08-.45h13.95a1.53 1.53 0 0 1 1.08 2.61l-55 55c-.29.28-.67.44-1.08.44z"/><path fill="#fff" d="M279.95 112l55-55H321l-55 55z"/><path fill="#333" d="M269.21 111h9.64l51.95-51.95h-9.64zm-3.68 3.05c-.62 0-1.18-.37-1.41-.94a1.5 1.5 0 0 1 .33-1.66l55-55a1.5 1.5 0 0 1 1.08-.45h13.95a1.53 1.53 0 0 1 1.08 2.61l-55 55c-.29.28-.67.44-1.08.44z"/><path fill="#fff" d="M152 120.52L180.52 92"/><path fill="#333" d="M152.53 121.57c-.39 0-.78-.15-1.08-.45a1.5 1.5 0 0 1 0-2.15l28.52-28.52c.59-.6 1.56-.6 2.16 0 .59.59.59 1.56 0 2.16l-28.52 28.51c-.3.3-.69.45-1.08.45"/><path fill="#fff" d="M170 120.52L198.52 92"/><path fill="#333" d="M169.53 121.57c-.39 0-.78-.15-1.08-.45a1.5 1.5 0 0 1 0-2.15l28.52-28.52c.59-.6 1.56-.6 2.16 0 .59.59.59 1.56 0 2.16l-28.52 28.51c-.3.3-.69.45-1.08.45"/><path fill="#fff" d="M190 120.52L218.52 92"/><path fill="#333" d="M190.53 121.57c-.39 0-.78-.15-1.08-.45a1.5 1.5 0 0 1 0-2.15l28.52-28.52c.59-.6 1.56-.6 2.16 0 .59.59.59 1.56 0 2.16l-28.52 28.51c-.3.3-.69.45-1.08.45"/><path fill="#fff" d="M222.77 99.16L164 99"/><path fill="#333" d="M223.29 100.14l-58.77-.09a1.52 1.52 0 1 1 .01-3.05l58.76.09a1.53 1.53 0 0 1 0 3.05"/><path fill="#fff" d="M209.77 112.16L151 112"/><path fill="#333" d="M209.29 113.14l-58.77-.09a1.52 1.52 0 1 1 .01-3.05l58.76.09a1.53 1.53 0 0 1 0 3.05"/><path fill="#f50" d="M51.73 159.36l5.2-5.19c-8.01-2.23-22.94-8.28-35.93-24.3C3.54 108.35 2.06 83.37 2 82.32L8.1 82c.01.24 1.42 24.03 17.63 44.02 12.07 14.88 26.14 20.38 33.16 22.32l-1.86-7.45 5.92-1.47 3.48 13.88-10.38 10.38z"/></svg>