<svg xmlns="http://www.w3.org/2000/svg" width="576.555" height="576.555" viewBox="0 0 576.555 576.555" fill="#fff"><path d="M453.317 245.324L201.601 15.717C190.845 5.905 176.964.501 162.515.501c-14.895 0-29.09 5.619-39.965 15.824a57.462 57.462 0 0 0-13.299 18.725c-3.299 7.443-4.971 15.391-4.971 23.621v459.214c0 8.23 1.672 16.177 4.969 23.619a57.491 57.491 0 0 0 13.299 18.727c10.877 10.204 25.07 15.824 39.965 15.824h.004c14.447 0 28.328-5.404 39.084-15.216l251.715-229.607c12.049-10.99 18.959-26.646 18.959-42.954s-6.91-31.964-18.958-42.954zm-28.871 54.258L172.732 529.189c-3.047 2.78-6.67 4.026-10.217 4.026-7.885 0-15.395-6.16-15.395-15.33V58.671c0-9.17 7.512-15.33 15.395-15.33 3.547 0 7.168 1.246 10.217 4.026l251.714 229.607c6.651 6.067 6.651 16.54 0 22.608z"/><path d="M162.515 0c14.574 0 28.575 5.45 39.423 15.347l251.716 229.607c12.152 11.085 19.121 26.876 19.121 43.323 0 16.448-6.97 32.239-19.122 43.324L201.938 561.209c-10.849 9.895-24.848 15.346-39.421 15.346-15.026 0-29.341-5.668-40.311-15.96a57.97 57.97 0 0 1-13.414-18.889c-3.325-7.506-5.012-15.521-5.012-23.821V58.671c0-8.302 1.687-16.317 5.014-23.823a57.961 57.961 0 0 1 13.414-18.887C133.175 5.668 147.49 0 162.515 0zm-.002 575.555c14.327 0 28.087-5.358 38.751-15.085l251.715-229.608c11.945-10.896 18.796-26.417 18.796-42.584s-6.851-31.688-18.795-42.585L201.264 16.085C190.601 6.357 176.839 1 162.515 1c-14.77 0-28.842 5.571-39.623 15.688a56.99 56.99 0 0 0-13.184 18.562c-3.27 7.379-4.928 15.258-4.928 23.419v459.216c0 8.16 1.657 16.038 4.926 23.416a56.973 56.973 0 0 0 13.184 18.564c10.784 10.118 24.855 15.69 39.623 15.69zm.002-532.714c3.922 0 7.571 1.438 10.554 4.157l251.714 229.607a15.832 15.832 0 0 1 5.152 11.673c0 4.432-1.877 8.687-5.152 11.674L173.069 529.558c-2.98 2.719-6.63 4.157-10.554 4.157-4.034 0-8.042-1.589-10.996-4.361-3.159-2.964-4.898-7.037-4.898-11.469V58.671c-.001-9.777 8.249-15.83 15.894-15.83zm0 489.874c3.67 0 7.086-1.347 9.88-3.896l251.714-229.607a14.831 14.831 0 0 0 4.826-10.935c0-4.151-1.759-8.137-4.826-10.935L172.395 47.737c-2.795-2.549-6.211-3.896-9.88-3.896-7.163 0-14.895 5.67-14.895 14.83v459.214c0 4.153 1.628 7.967 4.583 10.74 2.771 2.599 6.53 4.09 10.312 4.09z"/></svg>