<svg xmlns="http://www.w3.org/2000/svg" width="576.555" height="576.555" viewBox="0 0 576.555 576.555" fill="#fff"><path d="M123.238 331.231l251.716 229.607c10.756 9.812 24.637 15.216 39.086 15.216 14.895 0 29.09-5.619 39.965-15.824a57.462 57.462 0 0 0 13.299-18.725c3.299-7.443 4.971-15.391 4.971-23.621V58.67c0-8.23-1.672-16.177-4.969-23.619a57.491 57.491 0 0 0-13.299-18.727C443.13 6.12 428.937.5 414.042.5h-.004c-14.447 0-28.328 5.404-39.084 15.216L123.239 245.323c-12.049 10.99-18.959 26.646-18.959 42.954s6.91 31.964 18.958 42.954zm28.871-54.258L403.823 47.366c3.047-2.78 6.67-4.026 10.217-4.026 7.885 0 15.395 6.16 15.395 15.33v459.214c0 9.17-7.512 15.33-15.395 15.33-3.547 0-7.168-1.246-10.217-4.026L152.109 299.581c-6.651-6.067-6.651-16.54 0-22.608z"/><path d="M414.04 576.555c-14.574 0-28.575-5.45-39.423-15.347L122.901 331.601c-12.152-11.085-19.121-26.876-19.121-43.323 0-16.448 6.97-32.239 19.122-43.324L374.617 15.346C385.466 5.451 399.465 0 414.038 0c15.026 0 29.341 5.668 40.311 15.96a57.97 57.97 0 0 1 13.414 18.889c3.325 7.506 5.012 15.521 5.012 23.821v459.214c0 8.302-1.687 16.317-5.014 23.823a57.961 57.961 0 0 1-13.414 18.887c-10.967 10.293-25.282 15.961-40.307 15.961zM414.042 1c-14.327 0-28.087 5.358-38.751 15.085L123.576 245.693c-11.945 10.896-18.796 26.417-18.796 42.584s6.851 31.688 18.795 42.585L375.291 560.47c10.663 9.728 24.425 15.085 38.749 15.085 14.77 0 28.842-5.571 39.623-15.688a56.99 56.99 0 0 0 13.184-18.562c3.27-7.379 4.928-15.258 4.928-23.419V58.67c0-8.16-1.657-16.038-4.926-23.416a56.973 56.973 0 0 0-13.184-18.564C442.881 6.572 428.81 1 414.042 1zm-.002 532.714c-3.922 0-7.571-1.438-10.554-4.157L151.772 299.95a15.832 15.832 0 0 1-5.152-11.673c0-4.432 1.877-8.687 5.152-11.674L403.486 46.997c2.98-2.719 6.63-4.157 10.554-4.157 4.034 0 8.042 1.589 10.996 4.361 3.159 2.964 4.898 7.037 4.898 11.469v459.214c.001 9.777-8.249 15.83-15.894 15.83zm0-489.874c-3.67 0-7.086 1.347-9.88 3.896L152.446 277.343a14.831 14.831 0 0 0-4.826 10.935c0 4.151 1.759 8.137 4.826 10.935L404.16 528.818c2.795 2.549 6.211 3.896 9.88 3.896 7.163 0 14.895-5.67 14.895-14.83V58.67c0-4.153-1.628-7.967-4.583-10.74-2.771-2.599-6.53-4.09-10.312-4.09z"/></svg>