<svg xmlns="http://www.w3.org/2000/svg" width="314" height="71" viewBox="0 0 314 71"><path fill="#fff" d="M54.93 21c2.42 0 4.33 1.67 4.33 4.09 0 2.36-1.91 4.03-4.33 4.03-2.41 0-4.32-1.67-4.32-4.03 0-2.42 1.91-4.09 4.32-4.09zm-6.78 36.75h14.02v-1.33l-1.28-.34c-1.63-.4-1.82-.59-1.82-2.81V37.53c0-2.36.1-4.13.19-5.65l-.49-.35L48 32.71v.98l1.62 1.09c1.38.93 1.63 1.08 1.63 3.2v15.29c0 2.12-.2 2.36-1.83 2.81l-1.27.34zM65 44.53C65 34.24 73.07 31 79.96 31c4.87 0 7.82 1.57 7.82 4.57 0 2.02-1.38 3.45-3.49 3.45-2.56 0-3.35-1.77-3.55-3.84-.24-1.87-.54-2.16-2.16-2.16-2.75 0-5.71 1.62-5.71 9.39 0 7.23 2.17 11.17 7.68 11.17 3.05 0 5.31-.89 7.13-1.82v1.57c-1.43 1.77-5.02 4.48-10.34 4.48-7.96 0-12.34-5.22-12.34-13.28m29.24 6.73V37.2c0-2.07-.09-2.27-1.51-3.1L91 33.11v-1.03L101.53 31l.59.44v17.91c0 2.9 1.13 4.03 3.34 4.03 1.77 0 3.45-.59 4.63-.98V37.2c0-2.07-.15-2.32-1.58-3.1l-1.67-.99v-1.03L117.32 31l.59.44v19.88c0 2.41.15 2.7 1.62 3.29l1.43.59v1.18l-10.18 1.43-.55-.39.1-3.31h-.24c-2.61 1.93-5.61 3.7-9.4 3.7-3.88 0-6.45-2.22-6.45-6.55m29.91 4.62l1.27-.33c1.63-.45 1.83-.7 1.83-2.81V37.45c0-2.12-.25-2.27-1.63-3.21L124 33.16v-.98L134.38 31l.54.4-.1 3.39h.2c1.52-1.63 4.33-3.79 7.18-3.79 2.36 0 3.79 1.28 3.79 3.69 0 2.36-1.48 3.69-3.4 3.69-2.26 0-2.85-.69-3.78-2.21-.3-.55-.59-.65-1.04-.65-.88 0-2.01.65-2.7 1.28v15.94c0 2.31.19 2.56 1.67 2.81l1.63.33v1.34h-14.22zm41.04-14.89c0-5.96-.79-8.12-3.74-8.12-2.51 0-4.48 2.36-4.67 8.56zM161.84 31c6.8 0 11.02 3.39 11.17 12.3h-16.23c.14 8.07 3.2 10.28 8.26 10.28 3.05 0 5.36-.89 7.23-1.87v1.62a14.39 14.39 0 0 1-10.43 4.48c-8.56 0-12.84-5.12-12.84-13.48 0-8.56 6.35-13.33 12.84-13.33zM176 55.41l14.02-21.15v-.19h-2.36c-3.59 0-4.42.19-5.61 1.47-1.27 1.38-2.02 2.71-3.44 5.16h-1.33l.54-8.7h20.91v1.97l-13.98 21.3v.2h2.42c4.52 0 5.51-.35 6.74-1.87a32.88 32.88 0 0 0 3.34-5.12h1.38l-.79 9.05H176zm26 0l14.02-21.15v-.19h-2.37c-3.59 0-4.42.19-5.6 1.47-1.29 1.38-2.02 2.71-3.45 5.16h-1.32l.53-8.7h20.91v1.97l-13.97 21.3v.2h2.41c4.53 0 5.51-.35 6.74-1.87a33.63 33.63 0 0 0 3.35-5.12h1.37l-.78 9.05H202zm40.82-10.39l-2.26.19c-2.5.2-3.83 1.33-3.83 4.87 0 3.2 1.42 4.24 3.34 4.24 1.38 0 2.31-.59 2.75-1.43zm-4.97-1.28l4.97-1.23v-4.28c0-4.09-.78-5.32-3.48-5.32-1.49 0-1.98.4-2.07 1.78-.25 3.09-1.28 4.33-3.84 4.33-2.17 0-3.35-1.14-3.35-3.05 0-3.15 4.04-4.97 10.88-4.97 6.14 0 9.73 1.91 9.73 6.74v13.63c0 1.82.2 2.55 1.14 3.04.64.35 1.62.44 2.31.49v1.19a9.4 9.4 0 0 1-5.76 1.72c-2.85 0-4.57-1.08-5.11-3.01h-.25a8.18 8.18 0 0 1-6.64 3.01c-4.63 0-7.38-2.36-7.38-6.49 0-4.33 3.3-6.25 8.85-7.58zm38.65-12.72a9.06 9.06 0 0 1-2.26 6.15c-5.71-2.41-8.61-4.33-8.61-7.43 0-2.9 2.11-4.72 5.36-4.72 3.59 0 5.51 1.92 5.51 6zm.93 19.88c0 3.48-2.7 5.35-6.25 5.35-4.71 0-6.79-2.5-6.79-7.03 0-3.35 1.39-5.22 2.66-6.73 7.34 3.33 10.38 4.86 10.38 8.41zM258 49.82c0 5.45 5.32 8.45 12.74 8.45 7.48 0 13.14-4.72 13.14-10.33 0-4.43-2.71-7.22-7.87-9.79V38c3.34-1.57 6.54-4.03 6.54-7.13 0-5.46-5.51-7.87-11.17-7.87-6.14 0-11.95 3.64-11.95 9.69 0 3.69 2.11 6.79 6.05 8.86v.2c-4.28 1.82-7.48 4.47-7.48 8.07zm48.5-18.8a9.06 9.06 0 0 1-2.26 6.15c-5.71-2.41-8.61-4.33-8.61-7.43 0-2.9 2.11-4.72 5.36-4.72 3.59 0 5.51 1.92 5.51 6zm.93 19.88c0 3.48-2.71 5.35-6.25 5.35-4.72 0-6.78-2.5-6.78-7.03 0-3.35 1.37-5.22 2.66-6.73 7.33 3.33 10.37 4.86 10.37 8.41zM288 49.82c0 5.45 5.32 8.45 12.75 8.45 7.48 0 13.13-4.72 13.13-10.33 0-4.43-2.72-7.22-7.87-9.79V38c3.34-1.57 6.54-4.03 6.54-7.13 0-5.46-5.51-7.87-11.17-7.87-6.15 0-11.95 3.64-11.95 9.69 0 3.69 2.11 6.79 6.05 8.86v.2c-4.28 1.82-7.48 4.47-7.48 8.07zM31.69 54.88c0-4.65-2-8.83-5.19-11.73l-1.4-1.33-14.37-12.56-1.18-1.05a11.12 11.12 0 0 1 3.67-18.17 15.79 15.79 0 0 0 4.1 17.53l1.4 1.34 14.37 12.55 1.18 1.05a11.1 11.1 0 0 1-3.67 18.17c.7-1.8 1.09-3.76 1.09-5.8zm4.73-24.1L21.95 18.13l-.95-.85A8.49 8.49 0 0 1 24.38 2.5l.07-.02A13.92 13.92 0 0 1 35.57 4.5l.03.02a7.34 7.34 0 0 1 2.34 3.15l.39 1.2c.17.98-.4 1.62-1.97 2.76-2.57 1.71-4.32 4-2.52 7.35 1.5 2.77 4.34 3.57 6.98 2.13 2.02-1.09 3-2.93 3-5.34l-.01-.48a15.86 15.86 0 0 0-29.17-8A19.21 19.21 0 0 0 7.3 39.85l.1.1 14.47 12.64.95.85a8.5 8.5 0 0 1-2.73 14.59l-.65.2-.07.02a14.05 14.05 0 0 1-11.12-2.03l-.03-.02a7.34 7.34 0 0 1-2.34-3.15l-.39-1.19c-.18-.99.39-1.63 1.96-2.77 2.57-1.71 4.33-4 2.53-7.35-1.5-2.77-4.34-3.56-6.99-2.13C.97 50.7 0 52.55 0 54.95l.01.49a15.85 15.85 0 0 0 29.17 8 19.24 19.24 0 0 0 7.34-32.57z"/></svg>