<svg xmlns="http://www.w3.org/2000/svg" style="border: 0 !important; clip: rect(0 0 0 0) !important; height: 1px !important; margin: -1px !important; overflow: hidden !important; padding: 0 !important; position: absolute !important; width: 1px !important;" class="root-svg-symbols-element">
    <symbol id="arrow-down" viewBox="0 0 240.811 240.811">
      <path d="M220.088 57.667l-99.671 99.695-99.671-99.707a12.147 12.147 0 0 0-17.191 0c-4.74 4.752-4.74 12.451 0 17.203l108.261 108.297c4.74 4.752 12.439 4.752 17.179 0L237.256 74.859c4.74-4.752 4.74-12.463 0-17.215-4.728-4.729-12.428-4.729-17.168.023z"/>
    </symbol>
    <symbol id="cross" viewBox="0 0 348.333 348.334">
      <path d="M336.559 68.611L231.016 174.165l105.543 105.549c15.699 15.705 15.699 41.145 0 56.85-7.844 7.844-18.128 11.769-28.407 11.769-10.296 0-20.581-3.919-28.419-11.769L174.167 231.003 68.609 336.563c-7.843 7.844-18.128 11.769-28.416 11.769-10.285 0-20.563-3.919-28.413-11.769-15.699-15.698-15.699-41.139 0-56.85l105.54-105.549L11.774 68.611c-15.699-15.699-15.699-41.145 0-56.844 15.696-15.687 41.127-15.687 56.829 0l105.563 105.554L279.721 11.767c15.705-15.687 41.139-15.687 56.832 0 15.705 15.699 15.705 41.145.006 56.844z"/>
    </symbol>
    <symbol id="info-1" viewBox="0 0 80 80">
      <path fill="#f50" d="M39.9 3a36.9 36.9 0 1 1 0 73.8 36.9 36.9 0 0 1 0-73.8"/><path fill="#2d2e2c" d="M15.63 63.88l-.81 7.24-2.21-2.21-6.99 7-2.02-2.02 7-7-2.21-2.21zM0 73.89l5.62 5.62 6.99-7 4.16 4.15L18.51 61 2.84 62.74 7 66.89zm75.91 0l-2.02 2.02-7-7-2.21 2.21-.8-7.24 7.24.8-2.21 2.21zM61 61l1.74 15.66 4.15-4.15 7 7 5.62-5.62-7-7 4.15-4.15z"/><path fill="#fff" d="M27.54 22.09a2.55 2.55 0 1 1 .01-5.1 2.55 2.55 0 0 1-.01 5.1z"/><path fill="#2d2e2c" d="M3.6 5.62L5.62 3.6l6.99 7 2.21-2.21.81 7.24-7.24-.81 2.21-2.21zm14.91 12.89L16.77 2.84 12.61 7 5.62 0 0 5.62l7 6.99-4.16 4.16zm45.37-2.88l.8-7.24 2.21 2.21 7-7 2.02 2.02-7 6.99 2.21 2.21zM79.51 5.62L73.89 0l-7 7-4.15-4.16L61 18.51l15.66-1.74-4.15-4.16zM27.09 45a5.1 5.1 0 1 0 0 10.18 5.1 5.1 0 0 0 0-10.18z"/><path fill="#2d2e2c" d="M27.36 55A6.36 6.36 0 0 0 21 61.36v3.82h12.72v-3.82A6.36 6.36 0 0 0 27.36 55z"/><path fill="#2d2e2c" d="M76.8 41.17v-2.54H41.17V3h-2.54v35.63H3v2.54h35.63V76.8h2.54V41.17H76.8"/><path fill="#fff" d="M27.54 53.09a2.55 2.55 0 1 1 .01-5.1 2.55 2.55 0 0 1-.01 5.1z"/><path fill="#2d2e2c" d="M53.09 52.63a2.55 2.55 0 0 1-2.55-2.54c0-1.4 1.15-2.55 2.55-2.55s2.54 1.15 2.54 2.55-1.14 2.54-2.54 2.54zm0-7.63a5.1 5.1 0 1 0 0 10.18 5.1 5.1 0 0 0 0-10.18z"/><path fill="#fff" d="M52.54 53.09a2.55 2.55 0 1 1 .01-5.1 2.55 2.55 0 0 1-.01 5.1z"/><path fill="#2d2e2c" d="M56.18 62.63h-7.64v-1.27a3.83 3.83 0 0 1 7.64 0zM46 61.36v3.82h12.72v-3.82a6.36 6.36 0 0 0-12.72 0z"/><path fill="#fff" d="M56.63 63.09H49v-1.27a3.82 3.82 0 1 1 7.63 0z"/><path fill="#2d2e2c" d="M27.09 22.63a2.55 2.55 0 0 1-2.55-2.54c0-1.4 1.15-2.55 2.55-2.55s2.54 1.15 2.54 2.55-1.14 2.54-2.54 2.54zm0-7.63a5.1 5.1 0 1 0 0 10.18 5.1 5.1 0 0 0 0-10.18z"/><path fill="#2d2e2c" d="M31.18 32.63h-7.64v-1.27a3.83 3.83 0 0 1 7.64 0zM27.36 25A6.36 6.36 0 0 0 21 31.36v3.82h12.72v-3.82A6.36 6.36 0 0 0 27.36 25z"/><path fill="#fff" d="M30.63 32.09H23v-1.27a3.82 3.82 0 1 1 7.63 0z"/><path fill="#2d2e2c" d="M53.09 22.63a2.55 2.55 0 0 1-2.55-2.54c0-1.4 1.15-2.55 2.55-2.55s2.54 1.15 2.54 2.55-1.14 2.54-2.54 2.54zm0-7.63a5.1 5.1 0 1 0 0 10.18 5.1 5.1 0 0 0 0-10.18z"/><path fill="#2d2e2c" d="M56.18 32.63h-7.64v-1.27a3.83 3.83 0 0 1 7.64 0zM52.36 25A6.36 6.36 0 0 0 46 31.36v3.82h12.72v-3.82A6.36 6.36 0 0 0 52.36 25z"/><path fill="#fff" d="M56.63 32.09H49v-1.27a3.82 3.82 0 1 1 7.63 0zm-26 31H23v-1.27a3.82 3.82 0 1 1 7.63 0zm21.91-41a2.55 2.55 0 1 1 .01-5.1 2.55 2.55 0 0 1-.01 5.1z"/>
    </symbol>
    <symbol id="info-2" viewBox="0 0 81 81">
      <path fill="#f50" d="M69.19 28c-.97.91-2.07 1.7-3.27 2.31v2.85h-.65a1.94 1.94 0 1 1 0 3.87 1.94 1.94 0 1 1 0 3.87H53.66a1.94 1.94 0 0 1 0-3.87 1.94 1.94 0 0 1 0-3.87h-.64v-2.85c-1.2-.61-2.3-1.4-3.27-2.31H4v11.46l11.51 10.83-5.06-4.76V34.45h30.96v20.64h-20.8l20.56 19.35h35.07a3.88 3.88 0 0 0 3.87-3.87V28H69.19"/><path fill="#2d2e2c" d="M10.29 23a1.3 1.3 0 0 1 0 2.58 1.3 1.3 0 0 1 0-2.58m5 0a1.3 1.3 0 0 1 0 2.58 1.3 1.3 0 0 1 0-2.58m5 0a1.3 1.3 0 0 1 0 2.58 1.3 1.3 0 0 1 0-2.58M3.87 77.86a1.3 1.3 0 0 1-1.29-1.29v-1.29h2.58V72.7H2.58v-2.58h2.58v-2.58H2.58v-2.58h2.58v-2.58H2.58V59.8h2.58v-2.58H2.58v-2.58h2.58v-2.58H2.58v-2.58h2.58V46.9H2.58v-6.04l39.32 37zm7.74-41.28h28.38v18.06h-19l-9.38-8.83zm30.96 20.64V34H9.03v9.38L4.05 38.7c-1.25-1.18-2.32-.91-2.72-.74-.4.18-1.33.76-1.33 2.49v36.12a3.88 3.88 0 0 0 3.87 3.87h38.7c1.69 0 2.27-.84 2.47-1.33.2-.5.35-1.51-.89-2.67L23.73 57.22z"/><path fill="#2d2e2c" d="M11.58 60.97l7.52 7.08h-7.52zM9 70.63h16.6L9 55zM74.95 2.58h2.58v2.58h-2.58zm-2.58 15.48c0 4.86-2.7 9.26-7.04 11.48l-.7.36v2.35h-3.87v-9.21a5.16 5.16 0 1 0-2.58 0v9.21h-3.87V29.9l-.7-.36a12.85 12.85 0 0 1-7.04-11.48c0-7.11 5.79-12.9 12.9-12.9s12.9 5.79 12.9 12.9zm3.87 2.58c.71 0 1.29.58 1.29 1.29v6.45h-6.57a15.33 15.33 0 0 0 3.75-7.74zM65.27 39.99H53.66a.65.65 0 0 1 0-1.29h11.61c.36 0 .65.29.65.64 0 .36-.29.65-.65.65zm0-5.16c.36 0 .65.29.65.64 0 .36-.29.65-.65.65H53.66a.65.65 0 0 1 0-1.29zm-5.8-14.19a2.59 2.59 0 0 1 0-5.16 2.59 2.59 0 0 1 0 5.16zM6.58 21.93c0-.71.58-1.29 1.29-1.29h36.36a15.4 15.4 0 0 0 3.74 7.74H6.58zM41.41 2.58h2.58v2.58h-2.58zM80.11 0h-7.74v2.58h-25.8V0h-7.74v7.74h7.74V5.16h4.36a15.46 15.46 0 0 0-6.94 12.9H7.87A3.88 3.88 0 0 0 4 21.93v9.03h46.99c.25.16.48.34.74.49v1.46a3.2 3.2 0 0 0-.63 4.5 3.2 3.2 0 0 0-.66 1.93 3.23 3.23 0 0 0 3.22 3.23h11.61a3.23 3.23 0 0 0 3.23-3.23 3.2 3.2 0 0 0-.66-1.93 3.2 3.2 0 0 0-.63-4.5v-1.46c.26-.15.49-.33.74-.49h12.16v-9.03a3.87 3.87 0 0 0-3.87-3.87h-1.29c0-5.38-2.76-10.13-6.94-12.9h4.36v2.58h7.74zM45 48.58h29.67V46H45zm0 6h29.67V52H45zm0 5h29.67V57H45zm0 5h29.67V62H45z"/>
    </symbol>
    <symbol id="info-3" viewBox="0 0 65 80">
      <path fill="#f50" d="M60.48 0H3.9A3.9 3.9 0 0 0 0 3.9v35.98a3.9 3.9 0 0 0 3.9 3.9h10.26v-10.3a5.15 5.15 0 1 1 10.3 0v10.3h36.02a3.9 3.9 0 0 0 3.9-3.9V3.9a3.9 3.9 0 0 0-3.9-3.9zM15.45 21.89a6.44 6.44 0 1 1 0-12.88 6.44 6.44 0 0 1 0 12.88z"/><path fill="#2d2e2c" d="M15.73 23.45a7.73 7.73 0 1 1 0-15.45 7.73 7.73 0 0 1 0 15.45zm0-12.87a5.14 5.14 0 1 0-.01 10.29 5.14 5.14 0 0 0 .01-10.29zm12.27 0h28.33V8H28zm0 6h28.33V14H28zm0 7h28.33V21H28zm8 6h20.6V27H36zm-3.04 50.21A19.98 19.98 0 0 1 13 59.83V33.44a6.45 6.45 0 0 1 12.88 0v11.59h1.28a9.03 9.03 0 0 1 9.02 9.01 9.03 9.03 0 0 1-9.02 9.01v-2.57a6.45 6.45 0 0 0 0-12.88H23.3V33.44a3.86 3.86 0 0 0-7.72 0v26.39a17.4 17.4 0 0 0 34.76 0V43.74h2.57v16.09a19.98 19.98 0 0 1-19.95 19.96z"/>
    </symbol>
    <symbol id="info-4" viewBox="0 0 80 80">
      <path fill="#f50" d="M4 6v55.2h6.55a6.41 6.41 0 1 1 12.58 0h10.53a6.41 6.41 0 1 1 12.57 0h10.53a6.42 6.42 0 1 1 12.58 0h6.55V6H4"/><path fill="#2d2e2c" d="M46.92 17.82L49.1 20a29.99 29.99 0 0 0-15.11 10.22 37.8 37.8 0 0 0-7.99 20l2.56.13c.01-.1.6-10.11 7.42-18.51a27.7 27.7 0 0 1 13.95-9.39l-.79 3.13 2.49.62 1.46-5.84L48.73 16l-1.81 1.82m13.57-1.25a1.93 1.93 0 1 1 0 3.85 1.93 1.93 0 0 1 0-3.85zm4.5 1.92a4.5 4.5 0 0 0-8.99 0 4.5 4.5 0 0 0 8.99 0zm-40.17 2.74l2.3-2.3 2.3 2.3 1.81-1.81-2.3-2.3 2.3-2.3L29.42 13l-2.3 2.3-2.3-2.3L23 14.82l2.3 2.3-2.3 2.3 1.82 1.81m-12 16l2.3-2.3 2.3 2.3 1.81-1.81-2.3-2.3 2.3-2.3L17.42 29l-2.3 2.3-2.3-2.3L11 30.82l2.3 2.3-2.3 2.3 1.82 1.81M50.42 36l-2.3 2.3-2.3-2.3L44 37.82l2.3 2.3-2.3 2.3 1.82 1.81 2.3-2.3 2.3 2.3 1.81-1.81-2.3-2.3 2.3-2.3L50.42 36M2.57 5.13h74.45V2.57H2.57zM0 0h79.59v7.7H0zm23.4 76.11a6.42 6.42 0 1 0-12.83 0v1.28H23.4zm-6.41-10.27a5.14 5.14 0 1 0-.03-10.29A5.14 5.14 0 0 0 17 65.84zm3.17 1.87a9 9 0 0 1 5.81 8.4v3.85H8v-3.85a9 9 0 0 1 5.81-8.4 7.71 7.71 0 1 1 10.88-7.01 7.7 7.7 0 0 1-4.53 7.01zm26.24 8.4a6.42 6.42 0 1 0-12.83 0v1.28H46.4zm-6.41-10.27a5.14 5.14 0 1 0-.03-10.29A5.14 5.14 0 0 0 40 65.84zm3.17 1.87a9 9 0 0 1 5.81 8.4v3.85H31v-3.85a9 9 0 0 1 5.81-8.4 7.71 7.71 0 1 1 10.88-7.01 7.7 7.7 0 0 1-4.53 7.01zm26.24 8.4a6.42 6.42 0 1 0-12.83 0v1.28H69.4zm-6.41-10.27a5.14 5.14 0 1 0-.03-10.29A5.14 5.14 0 0 0 63 65.84zm3.17 1.87a9 9 0 0 1 5.81 8.4v3.85H54v-3.85a9 9 0 0 1 5.81-8.4 7.71 7.71 0 1 1 10.88-7.01 7.7 7.7 0 0 1-4.53 7.01z"/>
    </symbol>
    <symbol id="info-5" viewBox="0 0 80 80">
      <path fill="#f50" d="M24.88 22.44a6.45 6.45 0 1 1-12.9-.02 6.45 6.45 0 0 1 12.9.02zm0 25a6.45 6.45 0 1 1-12.9-.02 6.45 6.45 0 0 1 12.9.02z"/><path fill="#424242" d="M24.04 18.98L22.39 17l-6.82 5.68-1.75-1.74L12 22.76l3.41 3.41zm3.96 1.6h19.31V18H28zm0 5h21.89V23H28zm-3.96 6.4L22.39 30l-6.82 5.68-1.75-1.74L12 35.76l3.41 3.41zm3.96 1.6h27.04V31H28zm0 5h5.15V36H28zm8 0h19.31V36H36zm-11.96 6.4L22.39 43l-6.82 5.68-1.75-1.74L12 48.76l3.41 3.41zm3.96 1.6h27.04V44H28zm0 5h19.31V49H28zm22 0h5.15V49H50zm0-31h5.15V18H50z"/><path fill="#424242" d="M75.97 59.23h-10.3V6.44A6.45 6.45 0 0 0 59.23 0H6.44a6.45 6.45 0 0 0 0 12.88v66.95h54.08V72.1h5.15v-5.15h10.3a3.86 3.86 0 0 0 0-7.72zM63.09 6.44v52.79h-2.57V10.3h-1.29a3.87 3.87 0 0 1-3.87-3.86 3.87 3.87 0 0 1 7.73 0zm-60.51 0a3.86 3.86 0 0 1 3.86-3.86h47.67a6.32 6.32 0 0 0 0 7.72H6.44a3.86 3.86 0 0 1-3.86-3.86zm6.43 70.81V12.88h48.93v46.35H21.68l-11.59 3.86 11.59 3.86h36.26v10.3zm9.22-14.16l2.37-.79v1.58zm42.29 3.86h2.57v2.58h-2.57zM23.18 61.8h42.49v2.58H23.18zm45.06 0h2.58v2.58h-2.58zm7.73 2.58h-2.58V61.8h2.58c.71 0 1.28.58 1.28 1.29 0 .71-.57 1.29-1.28 1.29z"/>
    </symbol>
    <symbol id="logo-m" viewBox="0 0 31 47">
      <path d="M21.85 36.17c0-3.06-1.38-5.82-3.58-7.73l-.97-.88-9.9-8.27-.82-.69a7.16 7.16 0 0 1-2.26-5.19 7.33 7.33 0 0 1 4.79-6.79 10.16 10.16 0 0 0 2.83 11.56l.97.88 9.9 8.27.81.69a7.14 7.14 0 0 1 2.27 5.19c0 3.08-1.99 5.7-4.8 6.79.49-1.19.76-2.48.76-3.83zm3.26-15.88l-9.98-8.34-.65-.56a5.49 5.49 0 0 1-2.11-4.3 5.65 5.65 0 0 1 4.44-5.44l.04-.02a9.97 9.97 0 0 1 7.67 1.34l.02.01a4.84 4.84 0 0 1 1.61 2.08l.27.78c.12.65-.27 1.07-1.35 1.82-1.77 1.14-2.98 2.64-1.74 4.85 1.03 1.83 2.99 2.35 4.81 1.41a3.68 3.68 0 0 0 2.07-3.52l-.01-.32C29.99 4.48 25.19 0 19.28 0c-3.86 0-7.25 1.91-9.19 4.8C4.67 6.39.73 11.21.73 16.92c0 3.7 1.66 7.03 4.3 9.35l.07.06 9.98 8.34.65.55a5.52 5.52 0 0 1 2.11 4.31 5.62 5.62 0 0 1-3.99 5.31c-.15.05-.3.1-.45.13l-.04.02a9.97 9.97 0 0 1-7.67-1.34l-.02-.01a4.86 4.86 0 0 1-1.62-2.08l-.26-.79c-.13-.65.27-1.07 1.35-1.82 1.77-1.13 2.98-2.64 1.74-4.84-1.04-1.83-2.99-2.35-4.82-1.41A3.7 3.7 0 0 0 0 36.22l.01.32c.2 5.6 5.01 10.08 10.92 10.08 3.85 0 7.25-1.91 9.19-4.81 5.42-1.58 9.36-6.41 9.36-12.11 0-3.7-1.66-7.03-4.3-9.35z"/>
    </symbol>
    <symbol id="logo" viewBox="0 0 213 48">
      <path d="M36.69 14c1.63 0 2.92 1.13 2.92 2.76 0 1.6-1.29 2.73-2.92 2.73s-2.93-1.13-2.93-2.73c0-1.63 1.3-2.76 2.93-2.76zM32.1 38.84h9.48v-.9l-.87-.23c-1.1-.27-1.23-.4-1.23-1.9V25.17c0-1.59.07-2.79.13-3.82l-.33-.23-7.28.79v.67l1.1.73c.93.63 1.09.73 1.09 2.16v10.34c0 1.43-.13 1.6-1.23 1.9l-.86.23zm11.9-8.7C44 23.19 49.45 21 54.11 21c3.29 0 5.29 1.06 5.29 3.09 0 1.37-.94 2.33-2.36 2.33-1.73 0-2.27-1.2-2.4-2.59-.17-1.27-.37-1.47-1.46-1.47-1.86 0-3.86 1.1-3.86 6.35 0 4.89 1.47 7.55 5.19 7.55 2.06 0 3.59-.6 4.82-1.23v1.06a9.12 9.12 0 0 1-6.99 3.03c-5.38 0-8.34-3.52-8.34-8.98m19.19 4.56v-9.51c0-1.4-.06-1.53-1.02-2.1L61 22.43v-.7l7.12-.73.4.3v12.1c0 1.96.76 2.72 2.26 2.72 1.19 0 2.32-.39 3.12-.66V25.19c0-1.4-.1-1.57-1.07-2.1l-1.12-.66v-.7l7.08-.73.4.3v13.43c0 1.63.1 1.83 1.09 2.23l.97.4v.8l-6.88.96-.37-.26.07-2.24h-.17c-1.76 1.3-3.79 2.5-6.35 2.5-2.63 0-4.36-1.5-4.36-4.42m20.91 3.12l.86-.23c1.1-.3 1.23-.47 1.23-1.9V25.36c0-1.44-.16-1.53-1.09-2.17l-1.1-.73v-.66l7.01-.8.37.27-.07 2.29h.14c1.03-1.1 2.92-2.56 4.85-2.56 1.6 0 2.57.86 2.57 2.49 0 1.6-1 2.5-2.3 2.5-1.53 0-1.93-.47-2.56-1.5-.2-.37-.4-.43-.7-.43-.6 0-1.36.43-1.83.86v10.77c0 1.57.13 1.73 1.13 1.9l1.1.23v.9H84.1zm27.84-10.07c0-4.03-.53-5.49-2.52-5.49-1.7 0-3.03 1.6-3.16 5.79zM109.68 21c4.59 0 7.45 2.29 7.55 8.31h-10.97c.09 5.46 2.16 6.95 5.58 6.95 2.06 0 3.63-.6 4.89-1.26v1.09a9.73 9.73 0 0 1-7.05 3.03c-5.79 0-8.68-3.46-8.68-9.11 0-5.78 4.29-9.01 8.68-9.01zM119 36.83l9.47-14.3v-.13h-1.59c-2.43 0-2.99.13-3.79 1-.86.92-1.36 1.82-2.33 3.48h-.9l.37-5.88h14.13v1.33l-9.44 14.4v.13h1.63c3.06 0 3.72-.24 4.55-1.26.8-1 1.53-2.1 2.26-3.46h.93l-.53 6.12H119zm18 0l9.47-14.3v-.13h-1.59c-2.43 0-2.99.13-3.79 1-.87.92-1.37 1.82-2.33 3.48h-.9l.37-5.88h14.13v1.33l-9.44 14.4v.13h1.62c3.07 0 3.73-.24 4.56-1.26.8-1 1.53-2.1 2.26-3.46h.93l-.53 6.12H137zm27.34-6.36l-1.52.14c-1.7.13-2.6.9-2.6 3.29 0 2.16.96 2.86 2.26 2.86.93 0 1.56-.4 1.86-.97zm-3.36-.86l3.36-.83v-2.9c0-2.76-.53-3.59-2.35-3.59-1.01 0-1.34.27-1.4 1.2-.17 2.09-.87 2.93-2.6 2.93-1.46 0-2.26-.77-2.26-2.06 0-2.13 2.73-3.36 7.35-3.36 4.16 0 6.58 1.29 6.58 4.55v9.22c0 1.23.14 1.72.77 2.06a4.4 4.4 0 0 0 1.56.33v.8a6.36 6.36 0 0 1-3.89 1.16c-1.93 0-3.09-.73-3.46-2.03h-.16a5.56 5.56 0 0 1-4.49 2.03c-3.13 0-4.99-1.6-4.99-4.39 0-2.92 2.23-4.22 5.98-5.12zm26.52-9.19a6.1 6.1 0 0 1-1.52 4.16c-3.86-1.63-5.82-2.93-5.82-5.03 0-1.96 1.43-3.19 3.62-3.19 2.43 0 3.72 1.3 3.72 4.06zm.63 13.43c0 2.36-1.82 3.63-4.22 3.63-3.19 0-4.59-1.7-4.59-4.76 0-2.26.94-3.52 1.8-4.55 4.96 2.26 7.01 3.29 7.01 5.68zM175 33.12c0 3.69 3.6 5.72 8.61 5.72 5.06 0 8.88-3.19 8.88-6.98 0-2.99-1.83-4.89-5.32-6.62v-.1c2.26-1.06 4.42-2.73 4.42-4.82 0-3.69-3.72-5.32-7.54-5.32-4.16 0-8.08 2.46-8.08 6.55 0 2.49 1.43 4.59 4.08 5.99v.13c-2.88 1.23-5.05 3.02-5.05 5.45zm32.5-12.7c0 1.93-.73 3.23-1.52 4.16-3.86-1.63-5.82-2.93-5.82-5.03 0-1.96 1.43-3.19 3.62-3.19 2.43 0 3.72 1.3 3.72 4.06zm.63 13.43c0 2.36-1.83 3.63-4.22 3.63-3.19 0-4.59-1.7-4.59-4.76 0-2.26.93-3.52 1.8-4.55 4.96 2.26 7.01 3.29 7.01 5.68zM195 33.12c0 3.69 3.59 5.72 8.62 5.72 5.05 0 8.87-3.19 8.87-6.98 0-2.99-1.83-4.89-5.32-6.62v-.1c2.26-1.06 4.43-2.73 4.43-4.82 0-3.69-3.73-5.32-7.55-5.32-4.16 0-8.08 2.46-8.08 6.55 0 2.49 1.42 4.59 4.09 5.99v.13c-2.9 1.23-5.06 3.02-5.06 5.45zM21.42 37.09c0-3.14-1.35-5.97-3.51-7.93l-.95-.9-9.71-8.48-.8-.71A7.5 7.5 0 0 1 8.94 6.79a10.64 10.64 0 0 0 2.77 11.85l.94.9 9.72 8.48.79.71a7.48 7.48 0 0 1-2.48 12.28c.48-1.21.74-2.54.74-3.92zm3.19-16.29l-9.78-8.54-.64-.58a5.75 5.75 0 0 1 2.29-9.99l.04-.02a9.5 9.5 0 0 1 7.52 1.37l.02.02a4.86 4.86 0 0 1 1.58 2.13l.26.8c.13.67-.26 1.1-1.32 1.87-1.74 1.16-2.93 2.71-1.7 4.97 1.01 1.87 2.93 2.41 4.71 1.44 1.37-.74 2.03-1.98 2.03-3.61l-.01-.33A10.71 10.71 0 0 0 9.89 4.92a13 13 0 0 0-4.96 22.01L5 27l9.78 8.55.65.57a5.75 5.75 0 0 1-1.85 9.86l-.44.14-.05.01a9.4 9.4 0 0 1-7.51-1.37l-.02-.02a4.99 4.99 0 0 1-1.59-2.12l-.26-.81c-.12-.67.27-1.1 1.33-1.87 1.73-1.16 2.92-2.71 1.7-4.97-1.01-1.87-2.93-2.41-4.72-1.44C.66 34.27 0 35.52 0 37.14l.01.33a10.71 10.71 0 0 0 19.71 5.41 13 13 0 0 0 4.96-22.02z"/>
    </symbol></svg>