<svg xmlns="http://www.w3.org/2000/svg" width="80" height="80" viewBox="0 0 80 80"><path fill="#f50" d="M39.9 3a36.9 36.9 0 1 1 0 73.8 36.9 36.9 0 0 1 0-73.8"/><path fill="#2d2e2c" d="M15.63 63.88l-.81 7.24-2.21-2.21-6.99 7-2.02-2.02 7-7-2.21-2.21zM0 73.89l5.62 5.62 6.99-7 4.16 4.15L18.51 61 2.84 62.74 7 66.89zm75.91 0l-2.02 2.02-7-7-2.21 2.21-.8-7.24 7.24.8-2.21 2.21zM61 61l1.74 15.66 4.15-4.15 7 7 5.62-5.62-7-7 4.15-4.15z"/><path fill="#fff" d="M27.54 22.09a2.55 2.55 0 1 1 .01-5.1 2.55 2.55 0 0 1-.01 5.1z"/><path fill="#2d2e2c" d="M3.6 5.62L5.62 3.6l6.99 7 2.21-2.21.81 7.24-7.24-.81 2.21-2.21zm14.91 12.89L16.77 2.84 12.61 7 5.62 0 0 5.62l7 6.99-4.16 4.16zm45.37-2.88l.8-7.24 2.21 2.21 7-7 2.02 2.02-7 6.99 2.21 2.21zM79.51 5.62L73.89 0l-7 7-4.15-4.16L61 18.51l15.66-1.74-4.15-4.16zM27.09 45a5.1 5.1 0 1 0 0 10.18 5.1 5.1 0 0 0 0-10.18z"/><path fill="#2d2e2c" d="M27.36 55A6.36 6.36 0 0 0 21 61.36v3.82h12.72v-3.82A6.36 6.36 0 0 0 27.36 55z"/><path fill="#2d2e2c" d="M76.8 41.17v-2.54H41.17V3h-2.54v35.63H3v2.54h35.63V76.8h2.54V41.17H76.8"/><path fill="#fff" d="M27.54 53.09a2.55 2.55 0 1 1 .01-5.1 2.55 2.55 0 0 1-.01 5.1z"/><path fill="#2d2e2c" d="M53.09 52.63a2.55 2.55 0 0 1-2.55-2.54c0-1.4 1.15-2.55 2.55-2.55s2.54 1.15 2.54 2.55-1.14 2.54-2.54 2.54zm0-7.63a5.1 5.1 0 1 0 0 10.18 5.1 5.1 0 0 0 0-10.18z"/><path fill="#fff" d="M52.54 53.09a2.55 2.55 0 1 1 .01-5.1 2.55 2.55 0 0 1-.01 5.1z"/><path fill="#2d2e2c" d="M56.18 62.63h-7.64v-1.27a3.83 3.83 0 0 1 7.64 0zM46 61.36v3.82h12.72v-3.82a6.36 6.36 0 0 0-12.72 0z"/><path fill="#fff" d="M56.63 63.09H49v-1.27a3.82 3.82 0 1 1 7.63 0z"/><path fill="#2d2e2c" d="M27.09 22.63a2.55 2.55 0 0 1-2.55-2.54c0-1.4 1.15-2.55 2.55-2.55s2.54 1.15 2.54 2.55-1.14 2.54-2.54 2.54zm0-7.63a5.1 5.1 0 1 0 0 10.18 5.1 5.1 0 0 0 0-10.18z"/><path fill="#2d2e2c" d="M31.18 32.63h-7.64v-1.27a3.83 3.83 0 0 1 7.64 0zM27.36 25A6.36 6.36 0 0 0 21 31.36v3.82h12.72v-3.82A6.36 6.36 0 0 0 27.36 25z"/><path fill="#fff" d="M30.63 32.09H23v-1.27a3.82 3.82 0 1 1 7.63 0z"/><path fill="#2d2e2c" d="M53.09 22.63a2.55 2.55 0 0 1-2.55-2.54c0-1.4 1.15-2.55 2.55-2.55s2.54 1.15 2.54 2.55-1.14 2.54-2.54 2.54zm0-7.63a5.1 5.1 0 1 0 0 10.18 5.1 5.1 0 0 0 0-10.18z"/><path fill="#2d2e2c" d="M56.18 32.63h-7.64v-1.27a3.83 3.83 0 0 1 7.64 0zM52.36 25A6.36 6.36 0 0 0 46 31.36v3.82h12.72v-3.82A6.36 6.36 0 0 0 52.36 25z"/><path fill="#fff" d="M56.63 32.09H49v-1.27a3.82 3.82 0 1 1 7.63 0zm-26 31H23v-1.27a3.82 3.82 0 1 1 7.63 0zm21.91-41a2.55 2.55 0 1 1 .01-5.1 2.55 2.55 0 0 1-.01 5.1z"/></svg>