<svg xmlns="http://www.w3.org/2000/svg" width="65" height="80" viewBox="0 0 65 80"><path fill="#f50" d="M60.48 0H3.9A3.9 3.9 0 0 0 0 3.9v35.98a3.9 3.9 0 0 0 3.9 3.9h10.26v-10.3a5.15 5.15 0 1 1 10.3 0v10.3h36.02a3.9 3.9 0 0 0 3.9-3.9V3.9a3.9 3.9 0 0 0-3.9-3.9zM15.45 21.89a6.44 6.44 0 1 1 0-12.88 6.44 6.44 0 0 1 0 12.88z"/><path fill="#2d2e2c" d="M15.73 23.45a7.73 7.73 0 1 1 0-15.45 7.73 7.73 0 0 1 0 15.45zm0-12.87a5.14 5.14 0 1 0-.01 10.29 5.14 5.14 0 0 0 .01-10.29zm12.27 0h28.33V8H28zm0 6h28.33V14H28zm0 7h28.33V21H28zm8 6h20.6V27H36zm-3.04 50.21A19.98 19.98 0 0 1 13 59.83V33.44a6.45 6.45 0 0 1 12.88 0v11.59h1.28a9.03 9.03 0 0 1 9.02 9.01 9.03 9.03 0 0 1-9.02 9.01v-2.57a6.45 6.45 0 0 0 0-12.88H23.3V33.44a3.86 3.86 0 0 0-7.72 0v26.39a17.4 17.4 0 0 0 34.76 0V43.74h2.57v16.09a19.98 19.98 0 0 1-19.95 19.96z"/></svg>