<svg xmlns="http://www.w3.org/2000/svg" width="80" height="80" viewBox="0 0 80 80"><path fill="#f50" d="M24.88 22.44a6.45 6.45 0 1 1-12.9-.02 6.45 6.45 0 0 1 12.9.02zm0 25a6.45 6.45 0 1 1-12.9-.02 6.45 6.45 0 0 1 12.9.02z"/><path fill="#424242" d="M24.04 18.98L22.39 17l-6.82 5.68-1.75-1.74L12 22.76l3.41 3.41zm3.96 1.6h19.31V18H28zm0 5h21.89V23H28zm-3.96 6.4L22.39 30l-6.82 5.68-1.75-1.74L12 35.76l3.41 3.41zm3.96 1.6h27.04V31H28zm0 5h5.15V36H28zm8 0h19.31V36H36zm-11.96 6.4L22.39 43l-6.82 5.68-1.75-1.74L12 48.76l3.41 3.41zm3.96 1.6h27.04V44H28zm0 5h19.31V49H28zm22 0h5.15V49H50zm0-31h5.15V18H50z"/><path fill="#424242" d="M75.97 59.23h-10.3V6.44A6.45 6.45 0 0 0 59.23 0H6.44a6.45 6.45 0 0 0 0 12.88v66.95h54.08V72.1h5.15v-5.15h10.3a3.86 3.86 0 0 0 0-7.72zM63.09 6.44v52.79h-2.57V10.3h-1.29a3.87 3.87 0 0 1-3.87-3.86 3.87 3.87 0 0 1 7.73 0zm-60.51 0a3.86 3.86 0 0 1 3.86-3.86h47.67a6.32 6.32 0 0 0 0 7.72H6.44a3.86 3.86 0 0 1-3.86-3.86zm6.43 70.81V12.88h48.93v46.35H21.68l-11.59 3.86 11.59 3.86h36.26v10.3zm9.22-14.16l2.37-.79v1.58zm42.29 3.86h2.57v2.58h-2.57zM23.18 61.8h42.49v2.58H23.18zm45.06 0h2.58v2.58h-2.58zm7.73 2.58h-2.58V61.8h2.58c.71 0 1.28.58 1.28 1.29 0 .71-.57 1.29-1.28 1.29z"/></svg>