<svg xmlns="http://www.w3.org/2000/svg" width="31" height="47" viewBox="0 0 31 47"><path d="M21.85 36.17c0-3.06-1.38-5.82-3.58-7.73l-.97-.88-9.9-8.27-.82-.69a7.16 7.16 0 0 1-2.26-5.19 7.33 7.33 0 0 1 4.79-6.79 10.16 10.16 0 0 0 2.83 11.56l.97.88 9.9 8.27.81.69a7.14 7.14 0 0 1 2.27 5.19c0 3.08-1.99 5.7-4.8 6.79.49-1.19.76-2.48.76-3.83zm3.26-15.88l-9.98-8.34-.65-.56a5.49 5.49 0 0 1-2.11-4.3 5.65 5.65 0 0 1 4.44-5.44l.04-.02a9.97 9.97 0 0 1 7.67 1.34l.02.01a4.84 4.84 0 0 1 1.61 2.08l.27.78c.12.65-.27 1.07-1.35 1.82-1.77 1.14-2.98 2.64-1.74 4.85 1.03 1.83 2.99 2.35 4.81 1.41a3.68 3.68 0 0 0 2.07-3.52l-.01-.32C29.99 4.48 25.19 0 19.28 0c-3.86 0-7.25 1.91-9.19 4.8C4.67 6.39.73 11.21.73 16.92c0 3.7 1.66 7.03 4.3 9.35l.07.06 9.98 8.34.65.55a5.52 5.52 0 0 1 2.11 4.31 5.62 5.62 0 0 1-3.99 5.31c-.15.05-.3.1-.45.13l-.04.02a9.97 9.97 0 0 1-7.67-1.34l-.02-.01a4.86 4.86 0 0 1-1.62-2.08l-.26-.79c-.13-.65.27-1.07 1.35-1.82 1.77-1.13 2.98-2.64 1.74-4.84-1.04-1.83-2.99-2.35-4.82-1.41A3.7 3.7 0 0 0 0 36.22l.01.32c.2 5.6 5.01 10.08 10.92 10.08 3.85 0 7.25-1.91 9.19-4.81 5.42-1.58 9.36-6.41 9.36-12.11 0-3.7-1.66-7.03-4.3-9.35z"/></svg>