<svg xmlns="http://www.w3.org/2000/svg" width="80" height="80" viewBox="0 0 80 80"><path fill="#f50" d="M4 6v55.2h6.55a6.41 6.41 0 1 1 12.58 0h10.53a6.41 6.41 0 1 1 12.57 0h10.53a6.42 6.42 0 1 1 12.58 0h6.55V6H4"/><path fill="#2d2e2c" d="M46.92 17.82L49.1 20a29.99 29.99 0 0 0-15.11 10.22 37.8 37.8 0 0 0-7.99 20l2.56.13c.01-.1.6-10.11 7.42-18.51a27.7 27.7 0 0 1 13.95-9.39l-.79 3.13 2.49.62 1.46-5.84L48.73 16l-1.81 1.82M60.49 16.57a1.93 1.93 0 1 1 0 3.85 1.93 1.93 0 0 1 0-3.85zm4.5 1.92a4.5 4.5 0 0 0-8.99 0 4.5 4.5 0 0 0 8.99 0zM24.82 21.23l2.3-2.3 2.3 2.3 1.81-1.81-2.3-2.3 2.3-2.3L29.42 13l-2.3 2.3-2.3-2.3L23 14.82l2.3 2.3-2.3 2.3 1.82 1.81M12.82 37.23l2.3-2.3 2.3 2.3 1.81-1.81-2.3-2.3 2.3-2.3L17.42 29l-2.3 2.3-2.3-2.3L11 30.82l2.3 2.3-2.3 2.3 1.82 1.81M50.42 36l-2.3 2.3-2.3-2.3L44 37.82l2.3 2.3-2.3 2.3 1.82 1.81 2.3-2.3 2.3 2.3 1.81-1.81-2.3-2.3 2.3-2.3L50.42 36M2.57 5.13h74.45V2.57H2.57zM0 0h79.59v7.7H0zM23.4 76.11a6.42 6.42 0 1 0-12.83 0v1.28H23.4zm-6.41-10.27a5.14 5.14 0 1 0-.03-10.29A5.14 5.14 0 0 0 17 65.84zm3.17 1.87a9 9 0 0 1 5.81 8.4v3.85H8v-3.85a9 9 0 0 1 5.81-8.4 7.71 7.71 0 1 1 10.88-7.01 7.7 7.7 0 0 1-4.53 7.01zM46.4 76.11a6.42 6.42 0 1 0-12.83 0v1.28H46.4zm-6.41-10.27a5.14 5.14 0 1 0-.03-10.29A5.14 5.14 0 0 0 40 65.84zm3.17 1.87a9 9 0 0 1 5.81 8.4v3.85H31v-3.85a9 9 0 0 1 5.81-8.4 7.71 7.71 0 1 1 10.88-7.01 7.7 7.7 0 0 1-4.53 7.01zM69.4 76.11a6.42 6.42 0 1 0-12.83 0v1.28H69.4zm-6.41-10.27a5.14 5.14 0 1 0-.03-10.29A5.14 5.14 0 0 0 63 65.84zm3.17 1.87a9 9 0 0 1 5.81 8.4v3.85H54v-3.85a9 9 0 0 1 5.81-8.4 7.71 7.71 0 1 1 10.88-7.01 7.7 7.7 0 0 1-4.53 7.01z"/></svg>