<svg xmlns="http://www.w3.org/2000/svg" width="81" height="81" viewBox="0 0 81 81"><path fill="#f50" d="M69.19 28c-.97.91-2.07 1.7-3.27 2.31v2.85h-.65a1.94 1.94 0 1 1 0 3.87 1.94 1.94 0 1 1 0 3.87H53.66a1.94 1.94 0 0 1 0-3.87 1.94 1.94 0 0 1 0-3.87h-.64v-2.85c-1.2-.61-2.3-1.4-3.27-2.31H4v11.46l11.51 10.83-5.06-4.76V34.45h30.96v20.64h-20.8l20.56 19.35h35.07a3.88 3.88 0 0 0 3.87-3.87V28H69.19"/><path fill="#2d2e2c" d="M10.29 23a1.3 1.3 0 0 1 0 2.58 1.3 1.3 0 0 1 0-2.58M15.29 23a1.3 1.3 0 0 1 0 2.58 1.3 1.3 0 0 1 0-2.58M20.29 23a1.3 1.3 0 0 1 0 2.58 1.3 1.3 0 0 1 0-2.58M3.87 77.86a1.3 1.3 0 0 1-1.29-1.29v-1.29h2.58V72.7H2.58v-2.58h2.58v-2.58H2.58v-2.58h2.58v-2.58H2.58V59.8h2.58v-2.58H2.58v-2.58h2.58v-2.58H2.58v-2.58h2.58V46.9H2.58v-6.04l39.32 37zm7.74-41.28h28.38v18.06h-19l-9.38-8.83zm30.96 20.64V34H9.03v9.38L4.05 38.7c-1.25-1.18-2.32-.91-2.72-.74-.4.18-1.33.76-1.33 2.49v36.12a3.88 3.88 0 0 0 3.87 3.87h38.7c1.69 0 2.27-.84 2.47-1.33.2-.5.35-1.51-.89-2.67L23.73 57.22z"/><path fill="#2d2e2c" d="M11.58 60.97l7.52 7.08h-7.52zM9 70.63h16.6L9 55zM74.95 2.58h2.58v2.58h-2.58zm-2.58 15.48c0 4.86-2.7 9.26-7.04 11.48l-.7.36v2.35h-3.87v-9.21a5.16 5.16 0 1 0-2.58 0v9.21h-3.87V29.9l-.7-.36a12.85 12.85 0 0 1-7.04-11.48c0-7.11 5.79-12.9 12.9-12.9s12.9 5.79 12.9 12.9zm3.87 2.58c.71 0 1.29.58 1.29 1.29v6.45h-6.57a15.33 15.33 0 0 0 3.75-7.74zM65.27 39.99H53.66a.65.65 0 0 1 0-1.29h11.61c.36 0 .65.29.65.64 0 .36-.29.65-.65.65zm0-5.16c.36 0 .65.29.65.64 0 .36-.29.65-.65.65H53.66a.65.65 0 0 1 0-1.29zm-5.8-14.19a2.59 2.59 0 0 1 0-5.16 2.59 2.59 0 0 1 0 5.16zM6.58 21.93c0-.71.58-1.29 1.29-1.29h36.36a15.4 15.4 0 0 0 3.74 7.74H6.58zM41.41 2.58h2.58v2.58h-2.58zM80.11 0h-7.74v2.58h-25.8V0h-7.74v7.74h7.74V5.16h4.36a15.46 15.46 0 0 0-6.94 12.9H7.87A3.88 3.88 0 0 0 4 21.93v9.03h46.99c.25.16.48.34.74.49v1.46a3.2 3.2 0 0 0-.63 4.5 3.2 3.2 0 0 0-.66 1.93 3.23 3.23 0 0 0 3.22 3.23h11.61a3.23 3.23 0 0 0 3.23-3.23 3.2 3.2 0 0 0-.66-1.93 3.2 3.2 0 0 0-.63-4.5v-1.46c.26-.15.49-.33.74-.49h12.16v-9.03a3.87 3.87 0 0 0-3.87-3.87h-1.29c0-5.38-2.76-10.13-6.94-12.9h4.36v2.58h7.74zM45 48.58h29.67V46H45zM45 54.58h29.67V52H45zM45 59.58h29.67V57H45zM45 64.58h29.67V62H45z"/></svg>