<svg xmlns="http://www.w3.org/2000/svg" width="213" height="48" viewBox="0 0 213 48"><path d="M36.69 14c1.63 0 2.92 1.13 2.92 2.76 0 1.6-1.29 2.73-2.92 2.73s-2.93-1.13-2.93-2.73c0-1.63 1.3-2.76 2.93-2.76zM32.1 38.84h9.48v-.9l-.87-.23c-1.1-.27-1.23-.4-1.23-1.9V25.17c0-1.59.07-2.79.13-3.82l-.33-.23-7.28.79v.67l1.1.73c.93.63 1.09.73 1.09 2.16v10.34c0 1.43-.13 1.6-1.23 1.9l-.86.23zM44 30.14C44 23.19 49.45 21 54.11 21c3.29 0 5.29 1.06 5.29 3.09 0 1.37-.94 2.33-2.36 2.33-1.73 0-2.27-1.2-2.4-2.59-.17-1.27-.37-1.47-1.46-1.47-1.86 0-3.86 1.1-3.86 6.35 0 4.89 1.47 7.55 5.19 7.55 2.06 0 3.59-.6 4.82-1.23v1.06a9.12 9.12 0 0 1-6.99 3.03c-5.38 0-8.34-3.52-8.34-8.98M63.19 34.7v-9.51c0-1.4-.06-1.53-1.02-2.1L61 22.43v-.7l7.12-.73.4.3v12.1c0 1.96.76 2.72 2.26 2.72 1.19 0 2.32-.39 3.12-.66V25.19c0-1.4-.1-1.57-1.07-2.1l-1.12-.66v-.7l7.08-.73.4.3v13.43c0 1.63.1 1.83 1.09 2.23l.97.4v.8l-6.88.96-.37-.26.07-2.24h-.17c-1.76 1.3-3.79 2.5-6.35 2.5-2.63 0-4.36-1.5-4.36-4.42M84.1 37.82l.86-.23c1.1-.3 1.23-.47 1.23-1.9V25.36c0-1.44-.16-1.53-1.09-2.17l-1.1-.73v-.66l7.01-.8.37.27-.07 2.29h.14c1.03-1.1 2.92-2.56 4.85-2.56 1.6 0 2.57.86 2.57 2.49 0 1.6-1 2.5-2.3 2.5-1.53 0-1.93-.47-2.56-1.5-.2-.37-.4-.43-.7-.43-.6 0-1.36.43-1.83.86v10.77c0 1.57.13 1.73 1.13 1.9l1.1.23v.9H84.1zM111.94 27.75c0-4.03-.53-5.49-2.52-5.49-1.7 0-3.03 1.6-3.16 5.79zM109.68 21c4.59 0 7.45 2.29 7.55 8.31h-10.97c.09 5.46 2.16 6.95 5.58 6.95 2.06 0 3.63-.6 4.89-1.26v1.09a9.73 9.73 0 0 1-7.05 3.03c-5.79 0-8.68-3.46-8.68-9.11 0-5.78 4.29-9.01 8.68-9.01zM119 36.83l9.47-14.3v-.13h-1.59c-2.43 0-2.99.13-3.79 1-.86.92-1.36 1.82-2.33 3.48h-.9l.37-5.88h14.13v1.33l-9.44 14.4v.13h1.63c3.06 0 3.72-.24 4.55-1.26.8-1 1.53-2.1 2.26-3.46h.93l-.53 6.12H119zM137 36.83l9.47-14.3v-.13h-1.59c-2.43 0-2.99.13-3.79 1-.87.92-1.37 1.82-2.33 3.48h-.9l.37-5.88h14.13v1.33l-9.44 14.4v.13h1.62c3.07 0 3.73-.24 4.56-1.26.8-1 1.53-2.1 2.26-3.46h.93l-.53 6.12H137zM164.34 30.47l-1.52.14c-1.7.13-2.6.9-2.6 3.29 0 2.16.96 2.86 2.26 2.86.93 0 1.56-.4 1.86-.97zm-3.36-.86l3.36-.83v-2.9c0-2.76-.53-3.59-2.35-3.59-1.01 0-1.34.27-1.4 1.2-.17 2.09-.87 2.93-2.6 2.93-1.46 0-2.26-.77-2.26-2.06 0-2.13 2.73-3.36 7.35-3.36 4.16 0 6.58 1.29 6.58 4.55v9.22c0 1.23.14 1.72.77 2.06a4.4 4.4 0 0 0 1.56.33v.8a6.36 6.36 0 0 1-3.89 1.16c-1.93 0-3.09-.73-3.46-2.03h-.16a5.56 5.56 0 0 1-4.49 2.03c-3.13 0-4.99-1.6-4.99-4.39 0-2.92 2.23-4.22 5.98-5.12zM187.5 20.42a6.1 6.1 0 0 1-1.52 4.16c-3.86-1.63-5.82-2.93-5.82-5.03 0-1.96 1.43-3.19 3.62-3.19 2.43 0 3.72 1.3 3.72 4.06zm.63 13.43c0 2.36-1.82 3.63-4.22 3.63-3.19 0-4.59-1.7-4.59-4.76 0-2.26.94-3.52 1.8-4.55 4.96 2.26 7.01 3.29 7.01 5.68zM175 33.12c0 3.69 3.6 5.72 8.61 5.72 5.06 0 8.88-3.19 8.88-6.98 0-2.99-1.83-4.89-5.32-6.62v-.1c2.26-1.06 4.42-2.73 4.42-4.82 0-3.69-3.72-5.32-7.54-5.32-4.16 0-8.08 2.46-8.08 6.55 0 2.49 1.43 4.59 4.08 5.99v.13c-2.88 1.23-5.05 3.02-5.05 5.45zM207.5 20.42c0 1.93-.73 3.23-1.52 4.16-3.86-1.63-5.82-2.93-5.82-5.03 0-1.96 1.43-3.19 3.62-3.19 2.43 0 3.72 1.3 3.72 4.06zm.63 13.43c0 2.36-1.83 3.63-4.22 3.63-3.19 0-4.59-1.7-4.59-4.76 0-2.26.93-3.52 1.8-4.55 4.96 2.26 7.01 3.29 7.01 5.68zM195 33.12c0 3.69 3.59 5.72 8.62 5.72 5.05 0 8.87-3.19 8.87-6.98 0-2.99-1.83-4.89-5.32-6.62v-.1c2.26-1.06 4.43-2.73 4.43-4.82 0-3.69-3.73-5.32-7.55-5.32-4.16 0-8.08 2.46-8.08 6.55 0 2.49 1.42 4.59 4.09 5.99v.13c-2.9 1.23-5.06 3.02-5.06 5.45zM21.42 37.09c0-3.14-1.35-5.97-3.51-7.93l-.95-.9-9.71-8.48-.8-.71A7.5 7.5 0 0 1 8.94 6.79a10.64 10.64 0 0 0 2.77 11.85l.94.9 9.72 8.48.79.71a7.48 7.48 0 0 1-2.48 12.28c.48-1.21.74-2.54.74-3.92zm3.19-16.29l-9.78-8.54-.64-.58a5.75 5.75 0 0 1 2.29-9.99l.04-.02a9.5 9.5 0 0 1 7.52 1.37l.02.02a4.86 4.86 0 0 1 1.58 2.13l.26.8c.13.67-.26 1.1-1.32 1.87-1.74 1.16-2.93 2.71-1.7 4.97 1.01 1.87 2.93 2.41 4.71 1.44 1.37-.74 2.03-1.98 2.03-3.61l-.01-.33A10.71 10.71 0 0 0 9.89 4.92a13 13 0 0 0-4.96 22.01L5 27l9.78 8.55.65.57a5.75 5.75 0 0 1-1.85 9.86l-.44.14-.05.01a9.4 9.4 0 0 1-7.51-1.37l-.02-.02a4.99 4.99 0 0 1-1.59-2.12l-.26-.81c-.12-.67.27-1.1 1.33-1.87 1.73-1.16 2.92-2.71 1.7-4.97-1.01-1.87-2.93-2.41-4.72-1.44C.66 34.27 0 35.52 0 37.14l.01.33a10.71 10.71 0 0 0 19.71 5.41 13 13 0 0 0 4.96-22.02z"/></svg>